<svg xmlns="http://www.w3.org/2000/svg" xmlns:xlink="http://www.w3.org/1999/xlink" width="1181.964" height="60.033" viewBox="0 0 1181.964 60.033">
  <defs>
    <linearGradient id="linear-gradient" x1="0.685" y1="0.5" x2="0.315" y2="0.5" gradientUnits="objectBoundingBox">
      <stop offset="0" stop-color="#39abdf"/>
      <stop offset="1" stop-color="#7ad5ea"/>
    </linearGradient>
  </defs>
  <g id="게이지_02" data-name="게이지 02" transform="translate(-632.867 -2159.484)">
    <g id="그룹_7598" data-name="그룹 7598" transform="translate(0 -7.506)">
      <path id="사각형_760_복사_3" data-name="사각형 760 복사 3" d="M1330.671,2227.022H1075.8V2166.99h254.873l21.991,29.591Z" transform="translate(462.169)" fill="#00435a"/>
      <path id="사각형_760_복사_2" data-name="사각형 760 복사 2" d="M1675.5,2227.022h-345.68V2166.99H1675.5l21.992,29.959Z" transform="translate(-81.034 0)" fill="#005f7f"/>
      <path id="사각형_760_복사_3-2" data-name="사각형 760 복사 3" d="M1330.671,2227.022H1075.8V2166.99h254.873l21.991,29.591Z" transform="translate(-43.04 0)" fill="#018bba"/>
      <path id="사각형_760_복사_9" data-name="사각형 760 복사 9" d="M165.384,60.033H-5L20,29.707-5,0H420.638L442.63,29.935l-21.992,30.1Z" transform="translate(637.867 2166.99)" fill="url(#linear-gradient)"/>
    </g>
    <line id="선_37" data-name="선 37" x2="306.966" transform="translate(1309.5 2189.49)" fill="none" stroke="#3a7a8f" stroke-width="2" stroke-dasharray="6 2"/>
    <text id="Nokjiwon" transform="translate(1726.255 2195.328)" fill="#fff" font-size="16" font-family="Outfit-Bold, Outfit" font-weight="700" letter-spacing="-0.01em"><tspan x="0" y="0">Nokjiwon</tspan></text>
    <text id="Test_Expert" data-name="Test
Expert" transform="translate(1586.966 2180.328)" fill="#fff" font-size="16" font-family="Outfit-Bold, Outfit" font-weight="700" letter-spacing="-0.01em"><tspan x="-38" y="0">TEST</tspan><tspan x="-60" y="30">EXPERT</tspan></text>
    <text id="Mountain" transform="translate(1221.046 2195.328)" fill="#fff" font-size="16" font-family="Outfit-Bold, Outfit" font-weight="700" letter-spacing="-0.01em"><tspan x="0" y="0">Mountain</tspan></text>
    <text id="Horizon" transform="translate(993.758 2195.328)" fill="#fff" font-size="16" font-family="Outfit-Bold, Outfit" font-weight="700" letter-spacing="-0.01em"><tspan x="0" y="0">Horizon</tspan></text>
  </g>
</svg>
