<svg xmlns="http://www.w3.org/2000/svg" width="258.15" height="170.514" viewBox="0 0 258.15 170.514">
  <g id="그룹_9773" data-name="그룹 9773" transform="translate(-3772.026 21669.979)">
    <path id="패스_25785" data-name="패스 25785" d="M524.747,270.074l1.687,20.119c.3,3.594-2.583,7.8-6.038,9.161l-9.722,3.841-2.238-26.676-21.693,8.572c-3.455,1.365-5.278.414-5.6-3.447l-.7-8.354,68.936-27.239.7,8.354c.324,3.861-1.227,6.145-4.682,7.51Zm-43.9-40.467,16.389-6.476,1.847,22.005,45.235-17.873.73,8.712c.294,3.5-1.184,5.666-4.317,6.9l-52.144,20.6c-3.134,1.238-4.869.346-5.163-3.157Z" transform="translate(3291.585 -21802.66)" fill="#fff"/>
    <path id="패스_25786" data-name="패스 25786" d="M597.946,236.854l2.016,23.742c.307,3.625-2.574,7.859-6.03,9.231l-9.727,3.858-2.577-30.358-21.7,8.612c-3.456,1.371-5.283.409-5.612-3.487l-.716-8.428,46.622-18.5a47.983,47.983,0,0,0,.839-7.733c.125-3.422.174-5.784.074-6.961l-.915-10.784-40.193,15.946c-2.572,1.021-5.08-.139-5.379-3.673l-.709-8.337,61.414-24.365L617.418,200a40.022,40.022,0,0,1-.12,8.385c-.281,2.546-.587,4.822-.923,6.736l6.189-2.456.716,8.428c.331,3.9-1.219,6.2-4.674,7.569Z" transform="translate(3290.436 -21801.914)" fill="#fff"/>
    <path id="패스_25787" data-name="패스 25787" d="M626.221,185.376c-.723-8.469,3.457-15.843,10.787-18.756l14.9-5.921c7.33-2.913,12.451.767,13.174,9.236l4.592,53.845c.707,8.291-3.457,15.843-10.787,18.757l-14.9,5.92c-7.33,2.913-12.466-.945-13.174-9.236Zm23.437,46.449,1.183-.47c1.655-.658,2.768-1.929,2.456-5.584l-3.846-45.109c-.327-3.833-1.563-3.987-3.218-3.33l-1.182.47c-1.656.658-2.785,1.751-2.458,5.585L646.44,228.5c.312,3.655,1.563,3.987,3.218,3.33M684.7,163.983l10.562-4.2.829,9.717c.327,3.833-1.789,5.78-5.336,7.189l-4.808,1.912,1.042,12.212,10.562-4.2.828,9.717c.328,3.833-1.788,5.781-5.335,7.19l-4.808,1.911,1.14,13.372a15.43,15.43,0,0,1-2.3,9.392,14.08,14.08,0,0,1-6.962,6.269l-5.753,2.286-6.987-81.926,16-6.358Z" transform="translate(3289.297 -21801.488)" fill="#fff"/>
    <path id="패스_25788" data-name="패스 25788" d="M738.516,164.685l-5.081,14a15.275,15.275,0,0,0-1.25,7.317l.228,2.675-14.5,5.762-.228-2.674c-.281-3.3.656-8.555,2.673-14.518l5-13.969a23.471,23.471,0,0,0,1.484-9.346c-.449-5.26-1.66-8-5.838-6.345-3.073,1.222-4.654,5.628-4.137,11.691l-15.291,6.076c-1.125-13.193,5.451-26.867,18.219-31.941,14.5-5.762,21.05.3,22.191,13.672.517,6.062-1.74,13.042-3.471,17.6m-7.686,50.336-11.823,4.7L717.479,201.8l16.631-6.609,1.133,13.282c.266,3.121-1.181,5.262-4.413,6.547" transform="translate(3288.115 -21801.215)" fill="#fff"/>
  </g>
</svg>
