<svg xmlns="http://www.w3.org/2000/svg" width="84.865" height="133.711" viewBox="0 0 84.865 133.711">
  <path id="패스_25784" data-name="패스 25784" d="M475.022,113.788c-1.056-11.12,4.343-20.863,13.939-24.782l19.5-7.968c9.595-3.919,16.371.85,17.427,11.969l6.713,70.7c1.032,10.884-4.342,20.862-13.937,24.782l-19.5,7.967c-9.595,3.919-16.393-1.085-17.427-11.969Zm31.383,60.738,1.547-.632c2.166-.887,3.614-2.571,3.159-7.369L505.487,107.3c-.477-5.034-2.1-5.222-4.27-4.335l-1.547.632c-2.166.884-3.636,2.337-3.159,7.369l5.624,59.224c.456,4.8,2.1,5.219,4.27,4.335m53.26-18.112a20.276,20.276,0,0,1-2.9,12.37,18.509,18.509,0,0,1-9.07,8.326l-7.532,3.077L529.953,72.623,550.9,64.066Z" transform="translate(-474.891 -64.066)" fill="#fff"/>
</svg>
