<svg width="24" height="24" viewBox="0 0 24 24" fill="none" xmlns="http://www.w3.org/2000/svg">
<path fill-rule="evenodd" clip-rule="evenodd" d="M11.1102 4.80356C7.62389 4.80356 4.7977 7.62975 4.7977 11.116C4.7977 14.6023 7.62389 17.4285 11.1102 17.4285C14.5964 17.4285 17.4226 14.6023 17.4226 11.116C17.4226 7.62975 14.5964 4.80356 11.1102 4.80356ZM2.99414 11.116C2.99414 6.63367 6.62781 3 11.1102 3C15.5925 3 19.2262 6.63367 19.2262 11.116C19.2262 15.5984 15.5925 19.2321 11.1102 19.2321C6.62781 19.2321 2.99414 15.5984 2.99414 11.116Z" fill="#111111"/>
<path fill-rule="evenodd" clip-rule="evenodd" d="M15.8852 15.8618C16.2374 15.5096 16.8084 15.5096 17.1605 15.8618L20.7677 19.4689C21.1198 19.8211 21.1198 20.3921 20.7677 20.7442C20.4155 21.0964 19.8445 21.0964 19.4923 20.7442L15.8852 17.1371C15.5331 16.7849 15.5331 16.2139 15.8852 15.8618Z" fill="#111111"/>
</svg>
