<svg width="15" height="15" viewBox="0 0 15 15" fill="none" xmlns="http://www.w3.org/2000/svg">
<path d="M14.9395 5.60956C14.8076 5.21902 14.478 4.93884 14.0779 4.87776L10.2076 4.28686L8.47309 0.625725C8.29215 0.239469 7.91896 0 7.5 0C7.08104 0 6.70785 0.240004 6.52691 0.624654L4.79183 4.2874L0.921556 4.8783C0.521981 4.93937 0.191874 5.22009 0.0599392 5.6101C-0.0757655 6.01243 0.022782 6.45011 0.316809 6.75119L3.13322 9.63446L2.46762 13.7124C2.39761 14.142 2.57209 14.561 2.92374 14.8069C3.10683 14.9349 3.31901 14.9997 3.53226 14.9997C3.70835 14.9997 3.88444 14.9553 4.04653 14.8663L7.49085 12.9549L10.954 14.8663C11.3116 15.064 11.7418 15.041 12.0763 14.8069C12.4279 14.5615 12.6024 14.142 12.5324 13.7129L11.8668 9.63499L14.6832 6.75173C14.9772 6.45065 15.0758 6.0135 14.9401 5.61063L14.9395 5.60956Z" fill="#0082FF"/>
</svg>
