<svg width="32" height="32" viewBox="0 0 32 32" fill="none" xmlns="http://www.w3.org/2000/svg">
<path d="M25.0938 18.375C21.9922 18.375 19.4688 20.8984 19.4688 24C19.4688 25.0504 19.7585 26.0344 20.2618 26.8766L17.2723 29.8661C16.7842 30.3542 16.7842 31.1457 17.2723 31.6339C17.5165 31.8779 17.8363 31.9999 18.1563 31.9999C18.4762 31.9999 18.7962 31.8779 19.0402 31.6339L21.9872 28.6869C22.878 29.2792 23.9462 29.625 25.0938 29.625C28.1954 29.625 30.7188 27.1016 30.7188 24C30.7188 20.8984 28.1954 18.375 25.0938 18.375ZM25.0938 27.125C23.3707 27.125 21.9688 25.7231 21.9688 24C21.9688 22.2769 23.3707 20.875 25.0938 20.875C26.8169 20.875 28.2188 22.2769 28.2188 24C28.2188 25.7231 26.8169 27.125 25.0938 27.125Z" fill="#0082FF"/>
<path d="M15.3438 24.5H8.78125V6.25C8.78125 5.55963 8.22162 5 7.53125 5C6.84088 5 6.28125 5.55963 6.28125 6.25V24.5H5.03125C4.59306 24.5 4.1725 24.5763 3.78125 24.715V3.75C3.78125 3.06075 4.342 2.5 5.03125 2.5H25.7188V14.25C25.7188 14.9404 26.2784 15.5 26.9688 15.5C27.6591 15.5 28.2188 14.9404 28.2188 14.25V1.25C28.2188 0.559625 27.6591 0 26.9688 0H5.03125C2.9635 0 1.28125 1.68225 1.28125 3.75V28.25C1.28125 30.3177 2.9635 32 5.03125 32H12.5938C13.2841 32 13.8438 31.4404 13.8438 30.75C13.8438 30.0596 13.2841 29.5 12.5938 29.5H5.03125C4.342 29.5 3.78125 28.9393 3.78125 28.25C3.78125 27.5607 4.342 27 5.03125 27H15.3438C16.0341 27 16.5938 26.4404 16.5938 25.75C16.5938 25.0596 16.0341 24.5 15.3438 24.5Z" fill="#0082FF"/>
</svg>
