<svg id="section-01-title.svg" xmlns="http://www.w3.org/2000/svg" xmlns:xlink="http://www.w3.org/1999/xlink" width="409.625" height="269.78" viewBox="0 0 409.625 269.78">
  <defs>
    <style>
      .cls-1 {
        fill: #fff;
        fill-rule: evenodd;
        filter: url(#filter);
      }
    </style>
    <filter id="filter" x="461.375" y="3117.22" width="409.625" height="269.78" filterUnits="userSpaceOnUse">
      <feOffset result="offset" dx="4" dy="6.928" in="SourceAlpha"/>
      <feGaussianBlur result="blur"/>
      <feFlood result="flood" flood-color="#040000" flood-opacity="0.2"/>
      <feComposite result="composite" operator="in" in2="blur"/>
      <feBlend result="blend" in="SourceGraphic"/>
    </filter>
  </defs>
  <path id="JUMP_" data-name="JUMP!" class="cls-1" d="M518.371,3191.22l-15.211-25.2c11.789-2,20.653-11.6,22.924-23.3,2.038-10.5-1.874-19.2-9.176-22.8-3.57-1.7-9.276-2.7-16.977-2.7h-24.2l-14.363,74h18.1l4.639-23.9h0.2l12.462,23.9h21.6Zm-31.76-36.8,4-20.6h7.2c7.1,0,11.2,3.6,9.96,10-1.378,7.1-6.657,10.6-14.158,10.6h-7Zm83.548,8c-2.018,10.4-5.64,13.6-12.04,13.6-6.7,0-8.727-4.5-6.942-13.7l8.754-45.1h-18.9l-8.812,45.4c-2.775,14.3.086,21.2,7.8,26.3,3.815,2.5,8.883,3.71,15.083,3.71a33.659,33.659,0,0,0,26.847-12.61c3.277-4,5.6-9.8,7.1-17.5l8.792-45.3h-18.9Zm89.592,28.8,14.362-74h-18.1l-8.283,46.8-19.718-46.8h-16.3l-14.363,74h18.1l8.273-45.2,19.629,45.2h16.4Zm36.912-24.4,9.627-49.6h-17.1l-9.626,49.6h17.1Zm-4.736,24.4,3.3-17h-17.1l-3.3,17h17.1Zm-150.058,96c23.1,0,39.947-12.6,44.683-37,2.931-15.1-1.457-26.5-10.793-32.5-4.637-2.9-11.627-4.5-20.828-4.5h-25.2l-14.363,74h26.5Zm-4.379-16.6,7.919-40.8h8.6c10.9,0,16.184,7.3,13.622,20.5-2.62,13.5-10.741,20.3-21.641,20.3h-8.5Zm116.8,16.6-15.039-74h-14.9l-44.064,74h20.3l5.977-10.7h25.7l1.524,10.7h20.5Zm-24.113-25.7h-15.5l12.511-25.3,0.28,0.1Zm87.282-26.7c1.821-9.9-.834-15.8-7.938-19.9a24.663,24.663,0,0,0-12.5-3.1c-13.6,0-27.587,9.2-30.032,21.8-1.864,9.6,2.395,16,13.544,20.9,6.177,2.7,13.872,5.3,12.727,11.2a8.986,8.986,0,0,1-8.478,7.1c-4.7,0-6.924-4-5.84-10.1h-18.8l-0.311,1.6c-3.086,15.9,5.884,24.31,21.985,24.31,16,0,27.432-8.41,30.208-22.71,1.882-9.7-1.073-15.6-16.015-22.6-7.421-3.5-11.033-5.5-10.179-9.9,0.64-3.3,4.126-5.8,7.626-5.8,3.7,0,5.531,1.9,5.3,7.2h18.7Zm63.56,52.4,14.363-74h-18.9l-5.4,27.8h-24.2l5.395-27.8h-18.9l-14.363,74h18.9l5.746-29.6h24.2l-5.745,29.6h18.9Zm36.863-24.4,9.627-49.6h-17.1l-9.627,49.6h17.1Zm-4.736,24.4,3.3-17h-17.1l-3.3,17h17.1Zm-233.68,66.8c-1.32,6.8-3.747,9-7.448,9-3.6,0-4.876-2.7-4.031-8.6h-20.1l-0.1.5c-3.067,15.8,5.907,24.71,20.308,24.71,11.9,0,20.546-5.91,25.324-13.01,2.4-3.6,4.286-9.2,5.742-16.7l8.87-45.7h-18.9Zm70.862-4.6c-2.019,10.4-5.64,13.6-12.04,13.6-6.7,0-8.727-4.5-6.942-13.7l8.754-45.1H621.2l-8.812,45.4c-2.776,14.3.085,21.2,7.8,26.3,3.815,2.5,8.882,3.71,15.083,3.71a33.659,33.659,0,0,0,26.847-12.61c3.276-4,5.6-9.8,7.1-17.5l8.792-45.3H659.1Zm105.292,28.8,14.363-74h-24.4l-23.953,48.7h-0.2l-5.249-48.7h-24.3l-14.362,74h17.4l10.288-56.1,5.113,56.1h12.5l26.593-55.6,0.161,0.2-11.353,55.4h17.4Zm32.556,0,4.5-23.2h8.8c21.2,0,31.15-12.1,33.809-25.8,1.941-10-1.41-18.5-8.692-22.2-3.551-1.8-9.238-2.9-17.158-2.8h-25l-14.363,74h18.1Zm7.725-39.8,3.416-17.6h7.4c8.4,0,11.577,2.7,10.413,8.7-1.223,6.3-5.528,8.9-13.129,8.9h-8.1Zm60.86,15.4,9.627-49.6h-17.1l-9.626,49.6h17.1Zm-4.736,24.4,3.3-17h-17.1l-3.3,17h17.1Z" transform="translate(-461.375 -3117.22)"/>
</svg>
