<?xml version="1.0" encoding="utf-8"?>
<!-- Generator: Adobe Illustrator 27.1.1, SVG Export Plug-In . SVG Version: 6.00 Build 0)  -->
<svg version="1.2" baseProfile="tiny" id="kinopio.svg"
	 xmlns="http://www.w3.org/2000/svg" xmlns:xlink="http://www.w3.org/1999/xlink" x="0px" y="0px" viewBox="0 0 249.1 77.9"
	 overflow="visible" xml:space="preserve">
<path id="KINOPIO_" fill-rule="evenodd" fill="#FFFFFF" d="M43.1,65.2L27.4,53.5L40,40.1l-13.2-8.5l-9.9,15.8l-1.2-13.8L0,35
	l5.7,40.8l13.5-1.2l-1.1-12.9l13.1,13.3L43.1,65.2z M54.4,74.3l6.5-33.5l-16.4-3.5l-2.1,38L54.4,74.3z M104.8,71.5l0.1-39.3
	l-16.5,1.4l1.9,20.9L75.5,33.8l-15,4.9l6.3,38.1l13.9-1.2l-1.9-17.2l14,17.1L104.8,71.5z M146.3,70.4l2.6-19.9l-11.4-11.7L120,36.4
	l-13.2,15l3.9,19.9l18.4,6.6L146.3,70.4z M136.9,58.8l-7.1,6.8l-8-3.2l-0.2-9.6l10.1-3.3L136.9,58.8z M186.6,56.2l3.2-14.6
	l-15.4-10.7l-24.7,3.4l3.3,41l13.5-0.9l-0.2-11.9l11,1.2L186.6,56.2z M173.6,53.4l-7.4,1L166,42.1l9.2,2.8L173.6,53.4z M201.3,74.3
	l6.5-33.5l-16.4-3.5l-2.1,38L201.3,74.3z M246.5,70.4l2.6-19.9l-11.4-11.7l-17.5-2.4l-13.2,15l3.9,19.9l18.4,6.6L246.5,70.4z
	 M237.1,58.8l-7.1,6.8l-8-3.2l-0.2-9.6l10.1-3.3L237.1,58.8z"/>
<g>
	<path fill="#FFFFFF" d="M10.8,2.3c0,6-1.4,10.9-8.6,14.5l-1.7-2.5c2.8-1.4,4.6-2.9,5.7-4.8L1.1,9.9L0.8,7.2l6.5-0.3
		c0.2-0.6,0.3-1.3,0.3-2.1H1.7V2.3H10.8z M16.3,0.5v18.7h-3.2V0.5H16.3z"/>
	<path fill="#FFFFFF" d="M35.9,14.8v2.6H19v-2.6h6.9v-3.9h-5.1v-9H24v6.5h10.2v2.5h-5.2v3.9H35.9z"/>
	<path fill="#FFFFFF" d="M46.9,12.3c0.7,0,1.3-0.1,2-0.2l0.2,2.3c-3.9,0.7-8.1,0.8-11.5,0.8l-0.3-2.6c0.6,0,1.2,0,1.9,0v-8h-1.4V2.1
		h10.5v2.5h-1.4V12.3z M42.3,12.6c0.5,0,1,0,1.5-0.1V4.7h-1.5V12.6z M53.1,0.6v18.8h-3.2V0.6H53.1z"/>
	<path fill="#FFFFFF" d="M72.8,14.7v2.6h-17v-2.6h6.9v-2.8c-3.2-0.5-5.5-2.4-5.5-5.2c0-3.2,3.1-5.3,7.1-5.3s7.1,2.1,7.1,5.3
		c0,2.8-2.3,4.7-5.5,5.2v2.8H72.8z M64.2,9.4c2.4,0,3.9-1,3.9-2.8c0-1.8-1.6-2.8-3.9-2.8c-2.3,0-3.9,1-3.9,2.8
		C60.3,8.5,61.9,9.4,64.2,9.4z"/>
</g>
</svg>
