<?xml version="1.0" encoding="utf-8"?>
<!-- Generator: Adobe Illustrator 27.1.1, SVG Export Plug-In . SVG Version: 6.00 Build 0)  -->
<svg version="1.2" baseProfile="tiny" id="peachsp.svg"
	 xmlns="http://www.w3.org/2000/svg" xmlns:xlink="http://www.w3.org/1999/xlink" x="0px" y="0px" viewBox="0 0 197.7 78.1"
	 overflow="visible" xml:space="preserve">
<path id="PEACH" fill-rule="evenodd" fill="#FFFFFF" d="M36.9,56.2l3.2-14.6L24.7,30.9L0,34.3l3.3,41l13.5-0.9l-0.2-11.9l11,1.2
	L36.9,56.2z M23.9,53.4l-7.4,1l-0.2-12.3l9.2,2.8L23.9,53.4z M72.5,75.8L71,64.3l-15.8,1.4l-0.8-4.8l11.7,1.7l2-9.5L55,52.7l1.6-4.6
	l15.8,4.1l2.3-11.6l-31-4.4l-5.3,23.7L43,74.2L72.5,75.8z M114.9,74.5l-10.8-35.3l-20.1-2.8L72.9,72.8l13.9,3l1.6-7.7l10.1-1
	l1.7,8.9L114.9,74.5z M96.9,58.2l-6.4-0.7l1.9-9.1l2.7,0.3L96.9,58.2z M156.4,69l-7.2-11.8l-8.8,7.5l-10-3.4l-0.6-9.7l7.9-6.4
	l10.3,5.7l5.9-12.7L138,31.8l-15.7,4.4l-9.9,13.4l6.1,22.2l20.8,6.3L156.4,69z M197.3,74.4l0.3-41.1l-16.8,0.9l1.5,14.8h-9.9
	l-1.9-15.8L154,36.2l8.7,40.6l12.9-2.2L174.1,62l9.4-2.3l1.6,15.6L197.3,74.4z"/>
<g>
	<path fill="#FFFFFF" d="M134.5,12.8c0.7,0,1.3-0.1,2-0.2l0.2,2.3c-3.9,0.7-8.1,0.8-11.5,0.8l-0.3-2.6c0.6,0,1.2,0,1.9,0v-8h-1.4
		V2.6h10.5v2.5h-1.4V12.8z M129.9,13c0.5,0,1,0,1.5-0.1V5.1h-1.5V13z M140.7,1v18.8h-3.2V1H140.7z"/>
	<path fill="#FFFFFF" d="M150.9,6.7c0,2.5,1.1,5.5,4.4,6.9l-1.7,2.5c-2.1-0.8-3.5-2.5-4.3-4.4c-0.8,2.1-2.2,3.8-4.3,4.7l-1.7-2.5
		c3.3-1.4,4.4-4.6,4.4-7.2V6.5H144V4h3.7V1.5h3.2V4h3.6v2.5h-3.6V6.7z M159.1,1v18.7h-3.2V1H159.1z"/>
	<path fill="#FFFFFF" d="M178.7,9.2v2.5h-16.9V9.2h5.9V6.1h3.2v3.1H178.7z M176.9,16.2c0,2.2-2.7,3.6-6.7,3.6s-6.7-1.4-6.7-3.6
		c0-2.2,2.7-3.6,6.7-3.6S176.9,14,176.9,16.2z M173.1,8c0.4-1.5,0.5-2.6,0.5-3.7h-9.9V1.8h13.1v1.5c0,1.5,0,3.1-0.5,5.1L173.1,8z
		 M173.6,16.2c0-0.8-1.2-1.2-3.5-1.2c-2.3,0-3.5,0.4-3.5,1.2c0,0.8,1.2,1.2,3.5,1.2C172.4,17.4,173.6,17,173.6,16.2z"/>
	<path fill="#FFFFFF" d="M197.2,13.7h-7v6.1H187v-6.1h-6.8v-2.5h17V13.7z M180.9,7.9c3.9-0.4,5.5-2,5.8-3.5h-5.1V1.9h14v2.5h-5
		c0.3,1.5,1.9,3,5.8,3.5l-1.2,2.5c-3.4-0.4-5.5-1.7-6.6-3.5c-1.1,1.8-3.2,3-6.6,3.5L180.9,7.9z"/>
</g>
</svg>
