<?xml version="1.0" encoding="utf-8"?>
<!-- Generator: Adobe Illustrator 27.1.1, SVG Export Plug-In . SVG Version: 6.00 Build 0)  -->
<svg version="1.2" baseProfile="tiny" id="_12.svg" xmlns="http://www.w3.org/2000/svg" xmlns:xlink="http://www.w3.org/1999/xlink"
	 x="0px" y="0px" viewBox="0 0 250.3 76.1" overflow="visible" xml:space="preserve">
<path id="TERESA" fill-rule="evenodd" fill="#FFFFFF" d="M36.1,73.6l-5.2-28.4l15.6-2.4l-1.2-13.8L0.1,31.4l1.6,18.2l16.1-2.4
	l0.4,28L36.1,73.6z M79.5,75.2l-1.6-12.3L61,64.4l-0.9-5.1l12.5,1.9l2.2-10.1l-14-0.6l1.7-5L79.4,50l2.5-12.4l-33.1-4.7L43,58.2
	l5,15.4L79.5,75.2z M127.3,68.7L114,57.8l7.4-5l3.4-14.2l-16.5-11.4l-26.4,3.6l3.5,43.8l14.4-1l-0.2-13.6L111,76.1L127.3,68.7z
	 M107.5,50.7l-7.9,1.7l-0.2-13.1l9.8,3L107.5,50.7z M161.6,75.2L160,62.9l-16.9,1.5l-0.9-5.1l12.5,1.9l2.2-10.1l-14-0.6l1.7-5
	l16.9,4.4l2.5-12.4l-33.2-4.7l-5.7,25.3l5,15.4L161.6,75.2z M199.6,73.5l8.9-17l-24.6-12l3-5l12.8,7.9l6.3-12l-14.9-7.5l-19.2,3.4
	L163,46.7l24.1,11.5l-3.7,5.4l-14.2-8.8L162.4,66l14.9,9.7L199.6,73.5z M250.3,73.8l-11.6-37.7l-21.5-3l-12,39l14.9,3.2l1.7-8.2
	l10.9-1.1l1.8,9.6L250.3,73.8z M231,56.5l-6.8-0.8l2-9.7l2.9,0.4L231,56.5z"/>
<g>
	<path fill="#FFFFFF" d="M17.7,13h-6.9v5.6H7.5V13H0.7v-2.5h17V13z M15.8,9H2.5V0.6h3.2v1.9h6.8V0.6h3.2V9z M12.6,4.9H5.7v1.5h6.8
		V4.9z"/>
	<path fill="#FFFFFF" d="M36.1,13.5v2.6h-17v-2.6H36.1z M22,11.6c1.1-3.4,1.3-5.8,1.4-7.8h-3.1V1.3h6.3v1.3c0,2.2,0,4.8-1.4,9.5
		L22,11.6z M30.6,11.8c0.6-3.4,0.7-6,0.8-7.9h-3.6V1.3h6.8v1.3c0,2.1,0,5-0.8,9.5L30.6,11.8z"/>
	<path fill="#FFFFFF" d="M54.5,13h-6.9v5.6h-3.2V13h-6.8v-2.5h17V13z M52.6,9H39.3V0.6h3.2v1.9h6.8V0.6h3.2V9z M49.4,4.9h-6.8v1.5
		h6.8V4.9z"/>
	<path fill="#FFFFFF" d="M72.9,13.5v2.6h-17v-2.6H72.9z M58.8,11.6c1.1-3.4,1.3-5.8,1.4-7.8h-3.1V1.3h6.3v1.3c0,2.2,0,4.8-1.4,9.5
		L58.8,11.6z M67.4,11.8c0.6-3.4,0.7-6,0.8-7.9h-3.6V1.3h6.8v1.3c0,2.1,0,5-0.8,9.5L67.4,11.8z"/>
</g>
</svg>
