<svg id="section-02-title.svg" xmlns="http://www.w3.org/2000/svg" xmlns:xlink="http://www.w3.org/1999/xlink" width="535.969" height="272.19" viewBox="0 0 535.969 272.19">
  <defs>
    <style>
      .cls-1, .cls-2, .cls-3 {
        fill: #fff;
        fill-rule: evenodd;
      }

      .cls-1 {
        filter: url(#filter);
      }

      .cls-2 {
        filter: url(#filter-2);
      }

      .cls-3 {
        filter: url(#filter-3);
      }
    </style>
    <filter id="filter" x="679.031" y="3941.81" width="270.969" height="84.19" filterUnits="userSpaceOnUse">
      <feOffset result="offset" dx="4" dy="6.928" in="SourceAlpha"/>
      <feGaussianBlur result="blur"/>
      <feFlood result="flood" flood-color="#040000" flood-opacity="0.2"/>
      <feComposite result="composite" operator="in" in2="blur"/>
      <feBlend result="blend" in="SourceGraphic"/>
    </filter>
    <filter id="filter-2" x="740.031" y="4034.81" width="315.969" height="84.19" filterUnits="userSpaceOnUse">
      <feOffset result="offset" dx="4" dy="6.928" in="SourceAlpha"/>
      <feGaussianBlur result="blur"/>
      <feFlood result="flood" flood-color="#040000" flood-opacity="0.2"/>
      <feComposite result="composite" operator="in" in2="blur"/>
      <feBlend result="blend" in="SourceGraphic"/>
    </filter>
    <filter id="filter-3" x="815.812" y="4129.81" width="399.188" height="84.19" filterUnits="userSpaceOnUse">
      <feOffset result="offset" dx="4" dy="6.928" in="SourceAlpha"/>
      <feGaussianBlur result="blur"/>
      <feFlood result="flood" flood-color="#040000" flood-opacity="0.2"/>
      <feComposite result="composite" operator="in" in2="blur"/>
      <feBlend result="blend" in="SourceGraphic"/>
    </filter>
  </defs>
  <path id="SPIN_" data-name="SPIN!" class="cls-1" d="M737.24,3964.82c1.822-9.9-.833-15.8-7.938-19.9a24.662,24.662,0,0,0-12.5-3.1c-13.6,0-27.587,9.2-30.033,21.8-1.863,9.6,2.395,16,13.545,20.9,6.176,2.7,13.872,5.3,12.727,11.2a8.987,8.987,0,0,1-8.479,7.1c-4.7,0-6.924-4-5.84-10.1h-18.8l-0.31,1.6c-3.087,15.9,5.884,24.31,21.985,24.31,16,0,27.432-8.41,30.207-22.71,1.883-9.7-1.072-15.6-16.015-22.6-7.421-3.5-11.033-5.5-10.179-9.9,0.641-3.3,4.126-5.8,7.626-5.8,3.7,0,5.532,1.9,5.3,7.2h18.7Zm19.658,52.4,4.5-23.2h8.8c21.2,0,31.151-12.1,33.81-25.8,1.941-10-1.41-18.5-8.692-22.2-3.551-1.8-9.238-2.9-17.158-2.8h-25l-14.363,74h18.1Zm7.725-39.8,3.416-17.6h7.4c8.4,0,11.577,2.7,10.412,8.7-1.222,6.3-5.527,8.9-13.128,8.9h-8.1Zm57.294,39.8,14.362-74h-18.9l-14.362,74h18.9Zm76.642,0,14.363-74h-18.1l-8.284,46.8-19.718-46.8h-16.3l-14.363,74h18.1l8.273-45.2,19.629,45.2h16.4Zm36.912-24.4,9.627-49.6H928l-9.627,49.6h17.1Zm-4.736,24.4,3.3-17h-17.1l-3.3,17h17.1Z" transform="translate(-679.031 -3941.81)"/>
  <path id="SWIM_" data-name="SWIM!" class="cls-2" d="M798.24,4057.82c1.822-9.9-.833-15.8-7.938-19.9a24.662,24.662,0,0,0-12.5-3.1c-13.6,0-27.587,9.2-30.033,21.8-1.863,9.6,2.395,16,13.545,20.9,6.176,2.7,13.872,5.3,12.727,11.2a8.987,8.987,0,0,1-8.479,7.1c-4.7,0-6.924-4-5.84-10.1h-18.8l-0.31,1.6c-3.087,15.9,5.884,24.31,21.985,24.31,16,0,27.432-8.41,30.207-22.71,1.883-9.7-1.072-15.6-16.015-22.6-7.421-3.5-11.033-5.5-10.179-9.9,0.641-3.3,4.126-5.8,7.626-5.8,3.7,0,5.532,1.9,5.3,7.2h18.7Zm69.011,52.4,33.964-74h-19.1l-19.475,48.3h-0.2l-1.326-48.3h-14.5l-20.237,48.1h-0.2l-0.564-48.1h-19.2l4.739,74h17.1l20.4-47.9h0.2l1.8,47.9h16.6Zm45.486,0,14.363-74H908.2l-14.362,74h18.9Zm92.343,0,14.36-74h-24.4l-23.954,48.7h-0.2l-5.248-48.7h-24.3l-14.363,74h17.4l10.288-56.1,5.112,56.1h12.5l26.593-55.6,0.161,0.2-11.353,55.4h17.4Zm36.92-24.4,9.63-49.6h-17.1l-9.63,49.6H1042Zm-4.73,24.4,3.3-17h-17.11l-3.3,17h17.11Z" transform="translate(-679.031 -3941.81)"/>
  <path id="THROW_" data-name="THROW!" class="cls-3" d="M838.169,4205.22l11.141-57.4h14.5l3.221-16.6h-48l-3.222,16.6h14.6l-11.14,57.4h18.9Zm82.421,0,14.363-74h-18.9l-5.4,27.8h-24.2l5.395-27.8h-18.9l-14.363,74h18.9l5.745-29.6h24.2l-5.745,29.6h18.9Zm71.4,0-15.21-25.2c11.788-2,20.652-11.6,22.923-23.3,2.037-10.5-1.874-19.2-9.176-22.8-3.57-1.7-9.276-2.7-16.977-2.7h-24.2l-14.363,74h18.1l4.639-23.9h0.2l12.462,23.9h21.6Zm-31.76-36.8,4-20.6h7.2c7.1,0,11.2,3.6,9.959,10-1.378,7.1-6.657,10.6-14.158,10.6h-7Zm75.81,38.21c21.2,0,41.5-17.01,45.75-38.91,4.11-21.2-10.15-37.9-31.75-37.9-22.5,0-42.34,17.2-46.78,40.1C999.007,4191.82,1015.44,4206.63,1036.04,4206.63Zm2.62-16.61c-12.1,0-18.5-9.8-16.13-22,2.27-11.7,12.49-21.6,24.29-21.6,11.9,0,18.2,10.3,15.95,21.9C1060.48,4180.12,1050.36,4190.02,1038.66,4190.02Zm113.67,15.2,33.96-74h-19.1l-19.47,48.3h-0.2l-1.33-48.3h-14.5l-20.24,48.1h-0.2l-0.56-48.1h-19.2l4.74,74h17.1l20.4-47.9h0.2l1.8,47.9h16.6Zm49.05-24.4,9.63-49.6h-17.1l-9.63,49.6h17.1Zm-4.73,24.4,3.3-17h-17.11l-3.3,17h17.11Z" transform="translate(-679.031 -3941.81)"/>
</svg>
