<?xml version="1.0" encoding="utf-8"?>
<!-- Generator: Adobe Illustrator 27.1.1, SVG Export Plug-In . SVG Version: 6.00 Build 0)  -->
<svg version="1.2" baseProfile="tiny" id="_08.svg" xmlns="http://www.w3.org/2000/svg" xmlns:xlink="http://www.w3.org/1999/xlink"
	 x="0px" y="0px" viewBox="0 0 205.6 77.8" overflow="visible" xml:space="preserve">
<path id="WARIO" fill-rule="evenodd" fill="#FFFFFF" d="M48.4,74.5l11.1-34.2L42.8,36l-5.1,21.1l-6.6-11.3l-8.7,10.2l-2.1-27L0,32.2
	l8.4,40.4l15,1.7l6.1-10.2l4.3,11.4L48.4,74.5z M98.8,74.2L87.3,36.5l-21.5-3l-12,39l14.9,3.2l1.7-8.2l10.9-1.1l1.8,9.6L98.8,74.2z
	 M79.5,56.8l-6.8-0.7l2-9.7l2.9,0.4L79.5,56.8z M142.6,69l-13.3-10.8l7.4-5l3.4-14.2l-16.5-11.4l-26.4,3.7l3.5,43.8l14.4-1L115,60.4
	l11.3,16.1L142.6,69z M122.8,51l-7.9,1.7l-0.2-13.1l9.8,3L122.8,51z M155,74l6.9-35.8l-17.6-3.7L142.1,75L155,74z M202.9,69.8
	l2.7-21.3L193.5,36l-18.7-2.5l-14.2,16.1l4.2,21.3l19.7,7L202.9,69.8z M192.8,57.4l-7.6,7.3l-8.6-3.4L176.5,51l10.8-3.5L192.8,57.4z
	"/>
<g>
	<path fill="#FFFFFF" d="M7.9,12.9c1.3-0.1,2.6-0.2,3.8-0.3l0.3,2.3c-3.8,0.8-7.9,0.7-11,0.7L0.5,13c1.2,0,2.6,0,4.1,0v-2.3
		C2.5,10.1,1,8.4,1,6.1c0-2.7,2.3-4.7,5.2-4.7c2.9,0,5.2,2,5.2,4.7c0,2.2-1.5,3.9-3.5,4.5V12.9z M4.2,6.1c0,1.3,0.9,2,2.1,2
		c1.1,0,2-0.7,2-2c0-1.3-0.9-2-2-2C5.1,4.1,4.2,4.8,4.2,6.1z M17.9,10.2h-2.2v8.9h-3.2V0.4h3.2v7.2h2.2V10.2z"/>
	<path fill="#FFFFFF" d="M23.4,12.3c2.7,0,4.9-0.2,7.2-0.6l0.3,2.6c-2.8,0.5-5.6,0.6-9.1,0.6h-1.7v-8h5.6V4.4h-5.7V1.9h9v7.6h-5.6
		V12.3z M34.9,0.3v18.9h-3.2V0.3H34.9z"/>
	<path fill="#FFFFFF" d="M54.5,14.5v2.6h-17v-2.6h6.9v-2.8c-3.2-0.5-5.5-2.4-5.5-5.2c0-3.2,3.1-5.3,7.1-5.3s7.1,2.1,7.1,5.3
		c0,2.8-2.3,4.7-5.5,5.2v2.8H54.5z M46,9.2c2.4,0,3.9-1,3.9-2.8c0-1.8-1.6-2.8-3.9-2.8c-2.3,0-3.9,1-3.9,2.8
		C42.1,8.3,43.7,9.2,46,9.2z"/>
</g>
</svg>
