<?xml version="1.0" encoding="utf-8"?>
<!-- Generator: Adobe Illustrator 27.1.1, SVG Export Plug-In . SVG Version: 6.00 Build 0)  -->
<svg version="1.2" baseProfile="tiny" id="rosetta.svg"
	 xmlns="http://www.w3.org/2000/svg" xmlns:xlink="http://www.w3.org/1999/xlink" x="0px" y="0px" viewBox="0 0 281.5 78"
	 overflow="visible" xml:space="preserve">
<path id="ROSETTA" fill-rule="evenodd" fill="#FFFFFF" d="M42.4,69.8L30,59.6l6.9-4.7l3.2-13.3L24.7,31L0,34.4l3.3,41l13.5-0.9
	l-0.2-12.8l10.6,15L42.4,69.8z M23.9,52.9l-7.4,1.6l-0.2-12.2l9.2,2.9L23.9,52.9z M79.8,70.5l2.6-19.9L71,38.9l-17.5-2.4l-13.2,15
	l3.9,19.9L62.6,78L79.8,70.5z M70.4,58.9l-7.1,6.8l-8-3.2l-0.2-9.6l10.1-3.3L70.4,58.9z M116.6,74.3l8.3-15.9l-23-11.3l2.8-4.7
	l11.9,7.4l5.9-11.2l-13.9-7l-18,3.1l-8.2,14.4l22.5,10.8l-3.5,5.1l-13.3-8.2l-6.3,10.4l14,9.1L116.6,74.3z M158,75.8l-1.5-11.5
	l-15.8,1.4l-0.8-4.8l11.7,1.7l2-9.5l-13.1-0.5l1.6-4.6l15.8,4.1l2.3-11.6l-31-4.4l-5.3,23.7l4.6,14.4L158,75.8z M192.6,74.3
	l-4.9-26.6l14.6-2.2l-1.1-12.9L159,34.9l1.5,17l15-2.3l0.3,26.2L192.6,74.3z M234.5,74.3l-4.9-26.6l14.6-2.2l-1.1-12.9L201,34.9
	l1.5,17l15-2.3l0.3,26.2L234.5,74.3z M281.5,74.6l-10.8-35.3l-20.1-2.9l-11.2,36.5l13.9,3l1.6-7.7l10.1-1l1.7,8.9L281.5,74.6z
	 M263.4,58.3l-6.4-0.7l1.9-9.1l2.7,0.4L263.4,58.3z"/>
<g>
	<path fill="#FFFFFF" d="M17.3,14.8v2.6h-17v-2.6h6.9v-2.4h-5V5.8h10.1V4.3H2.1V1.7h13.3v6.6H5.3v1.6h10.5v2.5h-5.5v2.4H17.3z"/>
	<path fill="#FFFFFF" d="M26.4,10.3c-1.5-0.5-2.6-1.4-3.2-2.6c-0.7,1.2-1.7,2.2-3.4,2.8l-1.5-2.4c2.4-0.8,3.2-2.4,3.3-4H19V1.6h8.2
		v2.5h-2.4c0.1,1.6,0.9,3.1,3.1,3.8L26.4,10.3z M35.3,16.8v2.4H21.8v-5.3h9.7v-0.6h-9.8v-2.4h13v5.3H25v0.6H35.3z M28,4.5V1h3v9.2
		h-3V7h-1.5V4.5H28z M34.8,10.3h-3.1V0.6h3.1V10.3z"/>
	<path fill="#FFFFFF" d="M41.3,12.5c2.7,0,4.9-0.2,7.2-0.6l0.3,2.6c-2.8,0.5-5.6,0.6-9.1,0.6H38v-8h5.6V4.6H38V2.1h9v7.6h-5.6V12.5z
		 M52.8,0.6v18.9h-3.2V0.6H52.8z"/>
	<path fill="#FFFFFF" d="M59.1,12.2c2.2-0.1,4.6-0.3,7-0.7l0.3,2.6c-3.1,0.6-6.2,0.8-8.9,0.8h-1.7V2.4h3.2V12.2z M72.7,10.1h-2.4
		v9.2h-3.2V0.6h3.2v6.9h2.4V10.1z"/>
</g>
</svg>
