<?xml version="1.0" encoding="utf-8"?>
<!-- Generator: Adobe Illustrator 27.1.1, SVG Export Plug-In . SVG Version: 6.00 Build 0)  -->
<svg version="1.2" baseProfile="tiny" id="waluigi.svg"
	 xmlns="http://www.w3.org/2000/svg" xmlns:xlink="http://www.w3.org/1999/xlink" x="0px" y="0px" viewBox="0 0 257 77"
	 overflow="visible" xml:space="preserve">
<path id="WALUIGI" fill-rule="evenodd" fill="#FFFFFF" d="M45.2,74.5l10.4-32L40,38.4l-4.8,19.8L29,47.6l-8.1,9.5l-2-25.3L0,34.9
	l7.9,37.8l14,1.6l5.7-9.6l4,10.7L45.2,74.5z M94.9,74.1L84.1,38.9L64,36L52.8,72.5l13.9,3l1.6-7.7l10.1-1l1.7,8.9L94.9,74.1z
	 M76.8,57.9l-6.4-0.7l1.9-9.1l2.7,0.4L76.8,57.9z M129.1,73.1l0.5-17.1l-18.9,5.7l-0.5-28.5l-17.3,2.1l5.9,40.1L129.1,73.1z
	 M161.4,74.4l7.9-9.6l3.1-20.1l-15.6-2.9l-1,19.6l-9.5,1.6l3.4-25.2L132,36.2L130.4,66l9.6,8.4L161.4,74.4L161.4,74.4z M185.7,73.9
	l6.5-33.5l-16.4-3.5l-2.1,38L185.7,73.9z M236.4,69.3l-0.9-20.4l-20.9,1.8l0.1,11.2l8.9-3.3l1.1,2.8l-7.9,3.1l-8.1-4.1l0.5-11.4
	l6.3-6l11.4,5l5.3-12.6l-14.9-5.1l-16.9,4.4l-9.1,14.7l5.9,21.2l18.2,6.2L236.4,69.3z M250.5,73.9l6.5-33.5l-16.4-3.5l-2.1,38
	L250.5,73.9z"/>
<g>
	<path fill="#FFFFFF" d="M193.1,12.8c1.3-0.1,2.6-0.2,3.8-0.3l0.3,2.3c-3.8,0.8-7.9,0.7-11,0.7l-0.4-2.6c1.2,0,2.6,0,4.1,0v-2.3
		c-2.1-0.6-3.6-2.3-3.6-4.5c0-2.7,2.3-4.7,5.2-4.7c2.9,0,5.2,2,5.2,4.7c0,2.2-1.5,3.9-3.5,4.5V12.8z M189.4,6c0,1.3,0.9,2,2.1,2
		c1.1,0,2-0.7,2-2c0-1.3-0.9-2-2-2C190.3,4,189.4,4.7,189.4,6z M203.2,10.1H201V19h-3.2V0.3h3.2v7.2h2.2V10.1z"/>
	<path fill="#FFFFFF" d="M221.4,14h-6.9v5.1h-3.2V14h-6.8v-2.5h17V14z M216.2,3.3h-9.9V0.8h13.2v6h-9.9v1.1H220v2.5h-13.6v-6h9.9
		V3.3z"/>
	<path fill="#FFFFFF" d="M233.3,8.3c0,4.2-2.1,6.8-5,6.8c-2.9,0-5-2.6-5-6.8c0-4.2,2.1-6.8,5-6.8C231.1,1.5,233.3,4.1,233.3,8.3z
		 M226.3,8.3c0,2.6,0.8,3.9,1.9,3.9s1.9-1.2,1.9-3.9s-0.8-3.9-1.9-3.9S226.3,5.6,226.3,8.3z M238.5,0.2v18.9h-3.2V0.2H238.5z"/>
	<path fill="#FFFFFF" d="M248.7,5c0,3,1.1,6.2,4.4,7.6l-1.7,2.5c-2.1-0.9-3.5-2.5-4.3-4.5c-0.8,2.3-2.2,4.1-4.4,5l-1.8-2.6
		c3.4-1.5,4.5-4.9,4.5-8V4.6h-3.7V2h10.6v2.6h-3.6V5z M256.9,0.3V19h-3.2V0.3H256.9z"/>
</g>
</svg>
