<?xml version="1.0" encoding="utf-8"?>
<!-- Generator: Adobe Illustrator 27.1.1, SVG Export Plug-In . SVG Version: 6.00 Build 0)  -->
<svg version="1.2" baseProfile="tiny" id="luigi.svg"
	 xmlns="http://www.w3.org/2000/svg" xmlns:xlink="http://www.w3.org/1999/xlink" x="0px" y="0px" viewBox="0 0 164.2 77"
	 overflow="visible" xml:space="preserve">
<path id="LUIGI" fill-rule="evenodd" fill="#FFFFFF" d="M36.4,73.1L36.8,56l-18.9,5.7l-0.5-28.5L0.1,35.3l5.9,40.1L36.4,73.1z
	 M68.6,74.4l7.9-9.6l3.1-20.1l-15.6-2.9l-1,19.5l-9.5,1.6L57,37.7l-17.7-1.5L37.6,66l9.6,8.4H68.6L68.6,74.4z M93,74l6.5-33.5
	L83.1,37l-2.1,38L93,74z M143.7,69.3l-0.9-20.4l-20.9,1.8l0.1,11.3l8.9-3.3l1.1,2.8l-7.9,3.1l-8.1-4.1l0.5-11.4l6.3-6l11.4,5
	l5.3-12.6l-14.9-5.1l-16.9,4.4l-9.1,14.7l5.9,21.2l18.2,6.2L143.7,69.3z M157.8,74l6.5-33.5L147.9,37l-2.1,38L157.8,74z"/>
<g>
	<path fill="#FFFFFF" d="M17.1,13.9h-6.9V19H7v-5.1H0.1v-2.5h17V13.9z M11.9,3.2H2V0.7h13.2v6H5.4v1.1h10.3v2.5H2.1v-6h9.9V3.2z"/>
	<path fill="#FFFFFF" d="M29,8.2c0,4.2-2.1,6.8-5,6.8c-2.9,0-5-2.6-5-6.8c0-4.2,2.1-6.8,5-6.8C26.9,1.4,29,4,29,8.2z M22.1,8.2
		c0,2.6,0.8,3.9,1.9,3.9s1.9-1.2,1.9-3.9S25.2,4.3,24,4.3S22.1,5.5,22.1,8.2z M34.2,0.1V19H31V0.1H34.2z"/>
	<path fill="#FFFFFF" d="M44.5,4.9c0,3,1.1,6.2,4.4,7.6L47.2,15c-2.1-0.9-3.5-2.5-4.3-4.5c-0.8,2.3-2.2,4.1-4.4,5l-1.8-2.6
		c3.4-1.5,4.5-4.9,4.5-8V4.5h-3.7V1.9h10.6v2.6h-3.6V4.9z M52.6,0.2v18.7h-3.2V0.2H52.6z"/>
</g>
</svg>
