<?xml version="1.0" encoding="utf-8"?>
<!-- Generator: Adobe Illustrator 27.1.1, SVG Export Plug-In . SVG Version: 6.00 Build 0)  -->
<svg version="1.2" baseProfile="tiny" id="koopajr.svg"
	 xmlns="http://www.w3.org/2000/svg" xmlns:xlink="http://www.w3.org/1999/xlink" x="0px" y="0px" viewBox="0 0 300.6 77"
	 overflow="visible" xml:space="preserve">
<path id="KOOPA_Jr." fill-rule="evenodd" fill="#FFFFFF" d="M43.1,64.2L27.4,52.4L40,39.1l-13.2-8.5l-9.9,15.8l-1.2-13.8L0,33.9
	l5.7,40.8l13.5-1.2l-1.1-12.9L31.2,74L43.1,64.2z M79.9,69.4l2.6-19.9L71.1,37.8l-17.5-2.4l-13.2,15l3.9,19.9l18.4,6.6L79.9,69.4z
	 M70.5,57.8l-7.1,6.8l-8-3.2l-0.2-9.6l10.1-3.3L70.5,57.8z M121.9,69.4l2.6-19.9L113,37.8l-17.5-2.4l-13.2,15l3.9,19.9l18.4,6.6
	L121.9,69.4z M112.4,57.8l-7.1,6.8l-8-3.2l-0.2-9.6l10.1-3.3L112.4,57.8z M162.1,55.1l3.2-14.6l-15.4-10.7l-24.7,3.4l3.3,41
	l13.5-0.9l-0.2-11.9l11,1.2L162.1,55.1z M149.1,52.3l-7.4,1l-0.2-12.3l9.2,2.9L149.1,52.3z M204,73.4l-10.8-35.3l-20.1-2.9L162,71.8
	l13.9,3l1.6-7.7l10.1-1l1.7,8.9L204,73.4z M186,57.2l-6.4-0.7l1.9-9.1l2.7,0.4L186,57.2z M254.9,66l-0.5-32.5L236,32.3l5.1,27.7
	l-8.4,4.6l-1.9-11.9l-15.3,6.9l7.7,13.6l17.3,3.8L254.9,66z M273.9,73.2L273,61l5.5-6l5.6,5l6.1-13.3l-9.6-5.8l-8.3,10l-0.5-8.2
	l-15.5,3.3l5.2,29.5L273.9,73.2z M298.2,73.4l1-11L286.5,62l0.8,12.2L298.2,73.4z"/>
<g>
	<path fill="#FFFFFF" d="M227.4,12.9h-6.9v6.3h-3.2v-6.3h-6.8v-2.6H222c0.2-0.8,0.3-1.6,0.4-2.3L212,8.6l-0.3-2.7l10.9-0.3
		c0-0.6,0-1.1,0-1.6h-10.3V1.5h13.4v1.7c0,2,0,4.1-0.6,7.2h2.3V12.9z"/>
	<path fill="#FFFFFF" d="M238,12.3c0.6-0.1,1.2-0.1,1.8-0.2l0.2,2.3c-3.7,0.7-7.9,0.8-11,0.8l-0.3-2.6c0.6,0,1.2,0,1.9,0v-8h-1.4
		V2.1h10.3v2.5H238V12.3z M233.6,12.5c0.4,0,0.9,0,1.3-0.1V4.6h-1.3V12.5z M246.2,10h-2.5v9.2h-3.2V0.5h3.2v6.9h2.5V10z"/>
	<path fill="#FFFFFF" d="M264.3,13.2h-7v6.1h-3.2v-6.1h-6.8v-2.5h17V13.2z M248,7.4c3.9-0.4,5.5-2,5.8-3.5h-5.1V1.4h14v2.5h-5
		c0.3,1.5,1.9,3,5.8,3.5l-1.2,2.5c-3.4-0.4-5.5-1.7-6.6-3.5c-1.1,1.8-3.2,3-6.6,3.5L248,7.4z"/>
	<path fill="#FFFFFF" d="M269.7,12c2.3-0.1,4.8-0.3,7.3-0.8l0.3,2.7c-3.2,0.7-6.3,0.8-9.2,0.8h-1.7V2.3h3.2V12z M281.5,0.5v18.7
		h-3.2V0.5H281.5z"/>
	<path fill="#FFFFFF" d="M300,0.5v18.9h-3.2V9.6h-2.6c-0.3,3.5-2.3,5.7-4.9,5.7c-2.8,0-4.9-2.6-4.9-6.8c0-4.2,2.1-6.8,4.9-6.8
		c2.5,0,4.4,2,4.9,5.3h2.6V0.5H300z M291.1,8.5c0-2.6-0.7-3.8-1.9-3.8c-1.1,0-1.9,1.2-1.9,3.8c0,2.7,0.7,3.9,1.9,3.9
		C290.4,12.4,291.1,11.2,291.1,8.5z"/>
</g>
</svg>
