<?xml version="1.0" encoding="utf-8"?>
<!-- Generator: Adobe Illustrator 27.1.1, SVG Export Plug-In . SVG Version: 6.00 Build 0)  -->
<svg version="1.2" baseProfile="tiny" id="_002.svg"
	 xmlns="http://www.w3.org/2000/svg" xmlns:xlink="http://www.w3.org/1999/xlink" x="0px" y="0px" viewBox="0 0 174.1 77.8"
	 overflow="visible" xml:space="preserve">
<path id="LUIGI" fill-rule="evenodd" fill="#FFFFFF" d="M38.9,73.7l0.5-18.2l-20.2,6.1L18.6,31L0,33.3l6.3,42.8L38.9,73.7z M73,75.1
	l8.5-10.2l3.3-21.5l-16.7-3.1L67,61.2l-10.2,1.7l3.7-27l-18.9-1.6l-1.8,31.9L50,75.1H73L73,75.1z M98.6,74.6l6.9-35.8L88,35.1
	l-2.2,40.6L98.6,74.6z M152.4,69.6l-0.9-21.8l-22.4,1.9l0.1,12l9.5-3.5l1.2,3l-8.5,3.3l-8.6-4.4l0.5-12.2l6.8-6.4l12.2,5.4l5.7-13.5
	l-16-5.5l-18.1,4.7l-9.8,15.7l6.3,22.7l19.4,6.6L152.4,69.6z M167.1,74.6l6.9-35.8l-17.6-3.7l-2.2,40.6L167.1,74.6z"/>
<path id="ルイージ" fill-rule="evenodd" fill="#FFFFFF" d="M109.3-31.6V-19l-0.1,0.2l1.8,1.9c0.8-0.6,1.4-1,2-1.4s1-0.8,1.4-1.1
	c1.7-1.3,3.1-2.9,4.2-4.7c-0.9-0.6-1.7-1.3-2.4-2.1c-1,1.8-2.3,3.4-3.9,4.6v-10L109.3-31.6L109.3-31.6z M104.9-30.3
	c0,5,0,5.4-0.4,6.8c-0.5,2-1.8,3.6-3.7,4.4c0.8,0.7,1.4,1.6,1.8,2.7c5.1-3,5.3-6.5,5.3-13.9L104.9-30.3L104.9-30.3z M128.2-16.5h3.1
	v-10.1c1.5-1.2,2.9-2.5,4.2-3.9l-2.6-2c-1.6,2-3.5,3.7-5.6,5.2c-2.1,1.5-4.3,2.6-6.7,3.5c0.8,0.7,1.4,1.6,1.8,2.6
	c2.1-0.8,4.1-1.8,5.9-3.2L128.2-16.5L128.2-16.5z M137.9-25.8v2.8h14.2v-2.8H137.9z M167.4-31.7c0.8,0.6,1.5,1.3,2.2,2.1l1.2-1.3
	c-0.7-0.7-1.4-1.4-2.2-1.9L167.4-31.7z M157.7-29.6c1.4,0.6,2.7,1.3,3.9,2.1l1.6-2.5c-1.3-0.8-2.6-1.5-4.1-2.1L157.7-29.6z
	 M165.9-30.2c0.8,0.7,1.5,1.4,2.2,2.2l1.2-1.2c-0.7-0.8-1.4-1.5-2.2-2.1L165.9-30.2z M155.7-25c1.3,0.5,2.6,1.1,3.9,1.8l1.3-2.5
	c-1.3-0.7-2.6-1.2-3.9-1.7L155.7-25z M158.1-16.3c2.5-0.9,4.9-2.2,7.2-3.7c2.3-1.5,4.3-3.4,5.9-5.7c-0.8-0.7-1.5-1.6-1.9-2.6
	c-3,4.4-7.4,7.5-12.5,9L158.1-16.3z"/>
<g>
	<path fill="#FFFFFF" d="M138.3,14.4h-6.9v5.1h-3.2v-5.1h-6.8v-2.5h17V14.4z M133.1,3.7h-9.9V1.2h13.2v6h-9.9v1.1h10.3v2.5h-13.6v-6
		h9.9V3.7z"/>
	<path fill="#FFFFFF" d="M150.2,8.7c0,4.2-2.1,6.8-5,6.8c-2.9,0-5-2.6-5-6.8c0-4.2,2.1-6.8,5-6.8C148.1,1.9,150.2,4.5,150.2,8.7z
		 M143.3,8.7c0,2.6,0.8,3.9,1.9,3.9s1.9-1.2,1.9-3.9s-0.8-3.9-1.9-3.9S143.3,6.1,143.3,8.7z M155.4,0.6v18.9h-3.2V0.6H155.4z"/>
	<path fill="#FFFFFF" d="M165.7,5.4c0,3,1.1,6.2,4.4,7.6l-1.7,2.5c-2.1-0.9-3.5-2.5-4.3-4.5c-0.8,2.3-2.2,4.1-4.4,5l-1.8-2.6
		c3.4-1.5,4.5-4.9,4.5-8V5.1h-3.7V2.4h10.6v2.6h-3.6V5.4z M173.8,0.7v18.7h-3.2V0.7H173.8z"/>
</g>
</svg>
