<?xml version="1.0" encoding="utf-8"?>
<!-- Generator: Adobe Illustrator 27.1.1, SVG Export Plug-In . SVG Version: 6.00 Build 0)  -->
<svg version="1.2" baseProfile="tiny" id="teresa.svg"
	 xmlns="http://www.w3.org/2000/svg" xmlns:xlink="http://www.w3.org/1999/xlink" x="0px" y="0px" viewBox="0 0 235.9 75.1"
	 overflow="visible" xml:space="preserve">
<path id="TERESA" fill-rule="evenodd" fill="#FFFFFF" d="M33.6,72.8l-4.9-26.6L43.3,44l-1.1-12.9L0,33.3l1.5,17l15-2.3l0.3,26.2
	L33.6,72.8z M74.7,74.2l-1.5-11.5l-15.8,1.4l-0.8-4.8l11.7,1.7l2-9.5l-13.1-0.5l1.6-4.6l15.8,4.1l2.3-11.6l-31-4.4l-5.3,23.7
	l4.6,14.5L74.7,74.2z M119.7,68.2L107.3,58l6.9-4.7l3.2-13.3L102,29.4l-24.7,3.4l3.3,41L94,72.9l-0.2-12.8l10.6,15L119.7,68.2z
	 M101.2,51.3l-7.4,1.6l-0.2-12.2l9.2,2.9L101.2,51.3z M152.2,74.2l-1.5-11.5l-15.8,1.4l-0.8-4.8l11.7,1.7l2-9.5l-13.1-0.5l1.6-4.6
	l15.8,4.1l2.3-11.6l-31-4.4l-5.3,23.7l4.6,14.5L152.2,74.2z M188,72.7l8.3-15.9l-23-11.3l2.8-4.7l11.9,7.4L194,37l-13.9-7l-18,3.1
	l-8.2,14.4l22.5,10.8l-3.5,5l-13.3-8.2l-6.3,10.4l14,9.1L188,72.7z M235.9,73l-10.8-35.3l-20.1-2.9l-11.2,36.5l13.9,3l1.6-7.7
	l10.1-1l1.7,8.9L235.9,73z M217.9,56.7l-6.4-0.7l1.9-9l2.7,0.4L217.9,56.7z"/>
<path id="テレサ" fill-rule="evenodd" fill="#FFFFFF" d="M12-55.4v3.3h11.7v-3.3H12z M9.3-50.8v3.2h7c0,5.1-3,6.1-6,6.5
	c0.8,0.9,1.4,2,1.8,3.2c6.7-1.8,7.6-5.4,7.8-9.7h6.7v-3.2H9.3L9.3-50.8z M31.7-54.9V-41l-0.1,0.3l2.2,2.1c0.6-0.3,1.1-0.7,1.7-0.9
	c0.7-0.3,1.2-0.6,1.7-1c4-2.1,7.3-5.2,9.9-8.9c-1-0.7-1.9-1.6-2.6-2.5c-2.2,3.7-5.5,6.7-9.4,8.7v-11.6H31.7L31.7-54.9z M59.6-55.5
	v3.6h-3.7v-3.1h-3.4v3.1h-3.1v3.3h3.1v4h3.4v-4h3.7c0,4.9-2,6.9-7.4,7c0.9,0.9,1.5,2.1,1.7,3.4c8.2-1.4,8.8-5.5,9.1-10.4h3.4v-3.3
	h-3.4v-3.6H59.6L59.6-55.5z"/>
<g>
	<path fill="#FFFFFF" d="M17,12.5h-6.9v5.6H6.8v-5.6H0V10h17V12.5z M15.1,8.4H1.8V0H5v1.9h6.8V0h3.2V8.4z M11.9,4.4H5v1.5h6.8V4.4z"
		/>
	<path fill="#FFFFFF" d="M35.4,13v2.6h-17V13H35.4z M21.3,11.1c1.1-3.4,1.3-5.8,1.4-7.8h-3.1V0.8h6.3V2c0,2.2,0,4.8-1.4,9.5
		L21.3,11.1z M29.9,11.2c0.6-3.4,0.7-6,0.8-7.9H27V0.8h6.8v1.3c0,2.1,0,5-0.8,9.5L29.9,11.2z"/>
	<path fill="#FFFFFF" d="M53.8,12.5h-6.9v5.6h-3.2v-5.6h-6.8V10h17V12.5z M51.9,8.4H38.6V0h3.2v1.9h6.8V0h3.2V8.4z M48.7,4.4h-6.8
		v1.5h6.8V4.4z"/>
	<path fill="#FFFFFF" d="M72.2,13v2.6h-17V13H72.2z M58.1,11.1c1.1-3.4,1.3-5.8,1.4-7.8h-3.1V0.8h6.3V2c0,2.2,0,4.8-1.4,9.5
		L58.1,11.1z M66.7,11.2c0.6-3.4,0.7-6,0.8-7.9h-3.6V0.8h6.8v1.3c0,2.1,0,5-0.8,9.5L66.7,11.2z"/>
</g>
</svg>
