<svg id="plays-title.svg" xmlns="http://www.w3.org/2000/svg" xmlns:xlink="http://www.w3.org/1999/xlink" width="656.625" height="229.16" viewBox="0 0 656.625 229.16">
  <defs>
    <style>
      .cls-1, .cls-2, .cls-3 {
        fill: #fff;
        fill-rule: evenodd;
      }

      .cls-1 {
        filter: url(#filter);
      }

      .cls-2 {
        filter: url(#filter-2);
      }

      .cls-3 {
        filter: url(#filter-3);
      }
    </style>
    <filter id="filter" x="1068.78" y="5462.03" width="147.22" height="31.97" filterUnits="userSpaceOnUse">
      <feOffset result="offset" dx="3.536" dy="3.536" in="SourceAlpha"/>
      <feGaussianBlur result="blur"/>
      <feFlood result="flood" flood-color="#040000" flood-opacity="0.2"/>
      <feComposite result="composite" operator="in" in2="blur"/>
      <feBlend result="blend" in="SourceGraphic"/>
    </filter>
    <filter id="filter-2" x="559.375" y="5357.94" width="491.625" height="138.06" filterUnits="userSpaceOnUse">
      <feOffset result="offset" dx="4" dy="6.928" in="SourceAlpha"/>
      <feGaussianBlur result="blur"/>
      <feFlood result="flood" flood-color="#040000" flood-opacity="0.2"/>
      <feComposite result="composite" operator="in" in2="blur"/>
      <feBlend result="blend" in="SourceGraphic"/>
    </filter>
    <filter id="filter-3" x="669.344" y="5266.84" width="273.656" height="69.16" filterUnits="userSpaceOnUse">
      <feOffset result="offset" dx="4" dy="6.928" in="SourceAlpha"/>
      <feGaussianBlur result="blur"/>
      <feFlood result="flood" flood-color="#040000" flood-opacity="0.2"/>
      <feComposite result="composite" operator="in" in2="blur"/>
      <feBlend result="blend" in="SourceGraphic"/>
    </filter>
  </defs>
  <path id="_..." data-name="..." class="cls-1" d="M1094.62,5489.75v-27.71h-25.84v27.71h25.84Zm58.65,0v-27.71h-25.84v27.71h25.84Zm58.65,0v-27.71h-25.84v27.71h25.84Z" transform="translate(-559.375 -5266.84)"/>
  <path id="PLAYS" class="cls-2" d="M590.167,5486.18v-39.46h14.966c36.054,0,48.979-20.58,48.979-43.88,0-17-8.5-31.46-22.109-37.75-6.632-3.06-16.666-4.93-30.1-4.76H559.384v125.85h30.783Zm0-67.69v-29.93h12.585c14.285,0,20.578,4.59,20.578,14.79,0,10.72-6.463,15.14-19.388,15.14H590.167Zm144.94,67.69v-28.23H697.862v-97.62H665.719v125.85h69.388Zm130.607,0-50-125.85h-25.34l-50.51,125.85h34.523l6.633-18.2h43.708l6.122,18.2h34.864Zm-49.49-43.71h-26.36l12.925-43.03,0.51,0.17Zm104.891,43.71v-45.75l37.245-80.1H923.836l-18.878,50.51-18.707-50.51H851.387l37.585,80.1v45.75h32.143Zm124.445-89.12c-0.17-16.84-6.63-26.87-20.07-33.84a47.838,47.838,0,0,0-22.27-5.27c-23.134,0-43.882,15.64-43.882,37.07,0,16.33,9.353,27.21,29.932,35.55,11.39,4.59,25.34,9.01,25.34,19.04a12.012,12.012,0,0,1-12.08,12.08c-7.988,0-13.09-6.81-13.26-17.18H957.3v2.72c0,27.04,18.027,41.33,45.413,41.33,27.21,0,43.87-14.29,43.87-38.61,0-16.49-6.97-26.53-34.69-38.43-13.777-5.95-20.58-9.36-20.58-16.84,0-5.61,5.1-9.86,11.05-9.86,6.3,0,10.04,3.23,11.4,12.24h31.8Z" transform="translate(-559.375 -5266.84)"/>
  <path id="MARIO" class="cls-3" d="M731.83,5327.18v-59.2H712.31l-11.6,38.96h-0.16l-11.76-38.96H669.35v59.2h13.92l-0.48-44.88,12.8,44.88h10l12.64-44.48,0.16,0.16-0.48,44.32h13.92Zm64.263,0-23.52-59.2h-11.92l-23.76,59.2h16.24l3.12-8.56h20.56l2.88,8.56h16.4Zm-23.28-20.56h-12.4l6.08-20.24,0.24,0.08Zm73.9,20.56-16.08-20.16c9.12-1.6,14.72-9.28,14.72-18.64,0-8.4-4.48-15.36-10.88-18.24-3.12-1.36-7.84-2.16-14-2.16h-19.36v59.2h14.48v-19.12h0.16l13.68,19.12h17.28Zm-31.12-29.44v-16.48h5.76c5.68,0,9.52,2.88,9.52,8,0,5.68-3.68,8.48-9.68,8.48h-5.6Zm52.76,29.44v-59.2h-15.12v59.2h15.12Zm39.736,1.12c16.96,0,30.56-13.6,30.56-31.12,0-16.96-14-30.32-31.28-30.32-18,0-31.2,13.76-31.2,32.08C876.165,5316.46,891.605,5328.3,908.085,5328.3Zm-0.48-13.28c-9.68,0-16.32-7.84-16.32-17.6,0-9.36,6.64-17.28,16.08-17.28,9.52,0,16.16,8.24,16.16,17.52C923.525,5307.1,916.965,5315.02,907.605,5315.02Z" transform="translate(-559.375 -5266.84)"/>
</svg>
