<?xml version="1.0" encoding="utf-8"?>
<!-- Generator: Adobe Illustrator 27.1.1, SVG Export Plug-In . SVG Version: 6.00 Build 0)  -->
<svg version="1.2" baseProfile="tiny" id="title.svg"
	 xmlns="http://www.w3.org/2000/svg" xmlns:xlink="http://www.w3.org/1999/xlink" x="0px" y="0px" viewBox="0 0 328.4 93.7"
	 overflow="visible" xml:space="preserve">
<path id="CHARACTERS" fill-rule="evenodd" fill="#FFFFFF" d="M102.7,7.1c-0.4-1.9-1.4-3.7-3-4.9c-1.7-1.5-3.9-2.3-6.2-2.2
	c-5,0-9,4-9.1,9c-0.1,2.6,0.9,5,2.7,6.8c3.7,3.6,9.6,3.5,13.2-0.2c1.1-1.2,1.9-2.6,2.4-4.2h-4.8c-0.7,1.8-2.4,3-4.3,3
	c-2.8,0-4.8-2.4-4.8-5.3c-0.2-2.7,1.9-5,4.6-5.2c0,0,0.1,0,0.1,0c1.9,0,3.7,1.3,4.3,3.1L102.7,7.1L102.7,7.1z M119.9,18.1V0.3h-4.5
	V7h-5.8V0.3H105v17.8h4.5V11h5.8v7.1H119.9z M139.5,18.1l-7.1-17.8h-3.6l-7.1,17.8h4.9l0.9-2.6h6.2l0.9,2.6H139.5L139.5,18.1z
	 M132.5,11.9h-3.7l1.8-6.1l0.1,0L132.5,11.9z M155,18.1l-4.8-6c2.7-0.5,4.6-2.9,4.4-5.6c0.1-2.3-1.2-4.4-3.3-5.5
	c-1.3-0.5-2.8-0.7-4.2-0.6h-5.8v17.8h4.3v-5.7h0l4.1,5.7L155,18.1L155,18.1z M145.6,9.3V4.3h1.7c1.7,0,2.9,0.9,2.9,2.4
	c0,1.7-1.1,2.5-2.9,2.5H145.6L145.6,9.3z M173.3,18.1l-7.1-17.8h-3.6l-7.1,17.8h4.9l0.9-2.6h6.2l0.9,2.6H173.3L173.3,18.1z
	 M166.3,11.9h-3.7l1.8-6.1l0.1,0L166.3,11.9z M192.8,7.1c-0.4-1.9-1.4-3.7-3-4.9c-1.7-1.5-3.9-2.3-6.2-2.2c-5,0-9,4-9.1,9
	c-0.1,2.6,0.9,5,2.7,6.8c3.7,3.6,9.6,3.5,13.2-0.2c1.1-1.2,1.9-2.6,2.4-4.2H188c-0.7,1.8-2.4,3-4.3,3c-2.8,0-4.8-2.4-4.8-5.3
	c-0.2-2.7,1.9-5,4.6-5.2c0,0,0.1,0,0.1,0c1.9,0,3.7,1.3,4.3,3.1L192.8,7.1L192.8,7.1z M201.8,18.1V4.3h3.5v-4h-11.5v4h3.5v13.8
	L201.8,18.1L201.8,18.1z M217,18.1v-4h-5.5v-3h5.4v-4h-5.4V4.3h5.5v-4h-9.9v17.8H217L217,18.1z M233.5,18.1l-4.8-6
	c2.7-0.5,4.6-2.9,4.4-5.6c0.1-2.3-1.2-4.4-3.3-5.5c-1.3-0.5-2.8-0.7-4.2-0.6h-5.8v17.8h4.3v-5.7h0l4.1,5.7L233.5,18.1L233.5,18.1z
	 M224.1,9.3V4.3h1.7c1.7,0,2.9,0.9,2.9,2.4c0,1.7-1.1,2.5-2.9,2.5H224.1L224.1,9.3z M246.9,5.5c0.1-2-1-3.9-2.8-4.8
	c-1-0.5-2.1-0.8-3.1-0.7c-3.3,0-6.2,2.2-6.2,5.2c0,2.3,1.3,3.8,4.2,5c1.6,0.6,3.6,1.3,3.6,2.7c0,0.9-0.8,1.7-1.7,1.7h0
	c-1.1,0-1.8-1-1.9-2.4h-4.5v0.4c0,3.8,2.5,5.8,6.4,5.8c3.8,0,6.2-2,6.2-5.4c0-2.3-1-3.7-4.9-5.4c-1.9-0.8-2.9-1.3-2.9-2.4
	c0-0.8,0.7-1.4,1.6-1.4c0.9,0,1.4,0.5,1.6,1.7L246.9,5.5L246.9,5.5z"/>
<g>
	<path fill="#FFFFFF" d="M119.5,51.3c0,14.1-3.1,24.7-17,32.9l-4.4-5.6c5.3-3.1,8.7-6.5,10.8-10.5l-9.4,1l-0.9-6.8l12.5-0.5
		c0.3-1.3,0.5-2.7,0.6-4.2h-10.6v-6.4H119.5z M139,45.9v46.9h-7.7V69.6h-2.9v21.3H121V46.9h7.5v16.3h2.9V45.9H139z"/>
	<path fill="#FFFFFF" d="M173.6,72c-6.5,1.1-12.8,1.2-22.5,1.2h-4.3V57.7h13.8v-2.9h-13.8v-6.4h21.8v15.3h-13.8v3.2
		c7.3-0.1,12.4-0.3,17.9-1.2L173.6,72z M151.4,76.6h32.4v16.3h-8.1v-9.9h-24.3V76.6z M183.7,45.9v29h-8.1v-29H183.7z"/>
	<path fill="#FFFFFF" d="M200.6,76.2c5.4,0,10.2-0.3,15.6-1.1l0.7,6.4c-6.8,1-13,1.1-20.4,1.1h-4V49.6h21.8V56h-13.7v6.5h12.4v6.3
		h-12.4V76.2z M230.3,45.8v47.1h-8.1V68.2H215v-6.5h7.2V45.8H230.3z"/>
</g>
</svg>
