<svg xmlns="http://www.w3.org/2000/svg" width="1000" height="342.543" viewBox="0 0 1000 342.543"><path d="M0 709.819h1000v342.543H0z" style="fill:#e60012" transform="translate(0 -709.82)"/><path d="M150.36 830.337h31.523l43.606 70.552-.023-70.552h31.28v101.171h-31.234l-43.837-70.552v70.552h-31.326l.012-101.171zM426.79 840.74h30.445v13.613h16.474v10.009h-16.474l.023 67.146H426.79l.012-67.146h-16.544v-9.986l16.555-.012-.023-13.624zm-152.632 23.483 30.423.011v67.274h-30.423v-67.285zm-.069-33.91h30.492v20.68h-30.492v-20.68zm545.442 67.02s-.012 10.171-.012 14.25c0 10.727-6.337 15.152-12.43 15.152-6.106 0-12.466-4.425-12.466-15.153 0-4.078.012-14.504.012-14.504s.023-9.952.023-14.03c0-10.68 6.372-15.072 12.43-15.072 6.071 0 12.431 4.391 12.431 15.072 0 4.078-.011 11.62.023 14.32l-.011-.035zm-12.222-37.698c-24.56 0-44.463 16.914-44.463 37.779 0 20.864 19.914 37.778 44.463 37.778 24.56 0 44.463-16.914 44.463-37.778 0-20.865-19.903-37.779-44.463-37.779zm-84.397-29.298h30.029v101.171h-30.075s-.011-3.267-.011-3.892c-11.643 7.31-24.78 7.298-35.01 2.525-2.746-1.274-20.807-9.94-20.807-33.353 0-17.76 16.752-37.153 38.682-35.23 7.218.638 12.35 3.267 17.216 6.001-.024-15.57-.024-37.222-.024-37.222zm.22 67.193v-12.026c0-10.403-7.182-13.056-11.909-13.056-4.842 0-11.932 2.653-11.932 13.056 0 3.453.011 11.99.011 11.99s-.011 8.388-.011 11.968c0 10.392 7.09 13.114 11.92 13.114 4.739 0 11.933-2.722 11.933-13.114 0-4.321-.011-11.932-.011-11.932zm-347.327-36.412c11.376-.324 34.453 7.125 34.291 33.759-.023 4.726-.012 36.608-.012 36.608h-30.225V887.3c0-5.862-5.607-12.384-13.902-12.384-8.283 0-14.446 6.522-14.446 12.384 0 2.873.035 44.185.035 44.185h-30.202l-.012-67.274 30.225-.023s-.034 5.41 0 7.078c5.816-5.549 14.192-9.858 24.248-10.148zm247.245 0c11.377-.324 34.454 7.125 34.292 33.759-.023 4.726-.012 36.608-.012 36.608h-30.225V887.3c0-5.862-5.607-12.384-13.902-12.384-8.283 0-14.446 6.522-14.446 12.384 0 2.873.035 44.185.035 44.185h-30.202l.023-67.274 30.19-.023s-.035 5.41 0 7.078c5.816-5.549 14.203-9.858 24.247-10.148zm-121.004 26.564c-.047-5.896.08-9.835 2.015-13.195 2.375-4.147 6.743-6.117 10.705-6.14h-.012c3.962.023 8.33 1.993 10.705 6.14 1.935 3.371 2.016 7.31 1.97 13.207l-25.383-.012zm25.278 20.286s.023.3.023 4.077c0 12.304-8.098 15.038-12.593 15.038-4.495 0-12.731-2.734-12.731-15.038 0-3.684.023-13.89.023-13.89s57.31.023 57.31-.011c0-20.865-20.146-38.15-44.891-38.15-24.746 0-44.8 16.914-44.8 37.779 0 20.864 20.054 37.767 44.8 37.767 20.528 0 37.871-11.713 43.165-27.596l-30.306.024zm329.186-70.1c4.924 0 7.368 1.667 7.368 4.97 0 2.27-1.413 3.984-3.765 4.575l3.858 7.704h-4.67l-3.3-7.067h-2.051v7.067h-4.206v-17.25h6.766zm-.382-6.743c-8.596 0-15.57 6.974-15.57 15.57s6.974 15.57 15.57 15.57 15.57-6.974 15.57-15.57-6.974-15.57-15.57-15.57zm12.592 15.581c0 6.951-5.641 12.593-12.592 12.593-6.951 0-12.593-5.642-12.593-12.593 0-6.95 5.642-12.592 12.593-12.592 6.95 0 12.592 5.63 12.592 12.592zm-14.77-1.181h2.05c2.398 0 3.557-.73 3.557-2.445 0-1.795-1.24-2.571-3.765-2.571h-1.842v5.016zM177.92 988.552c-68.397-.023-114.1-48.494-114.1-107.265 0-58.77 45.807-107.797 113.996-107.647h644.377c68.19-.15 113.996 48.877 113.996 107.647s-45.702 107.242-114.1 107.265H177.921zm.209-188.475c-54.148.104-87.385 36.296-87.385 81.071 0 44.765 33.028 81.257 87.385 81.06h643.752c54.356.186 87.396-36.295 87.396-81.06 0-44.764-33.237-80.955-87.385-81.06l-643.763-.01z" style="fill:#fff" transform="translate(0 -709.82)"/></svg>