<?xml version="1.0" encoding="utf-8"?>
<!-- Generator: Adobe Illustrator 27.1.1, SVG Export Plug-In . SVG Version: 6.00 Build 0)  -->
<svg version="1.2" baseProfile="tiny" id="peachpc.svg"
	 xmlns="http://www.w3.org/2000/svg" xmlns:xlink="http://www.w3.org/1999/xlink" x="0px" y="0px" viewBox="0 0 209.6 79.2"
	 overflow="visible" xml:space="preserve">
<path id="PEACH" fill-rule="evenodd" fill="#FFFFFF" d="M39.5,55.7l3.4-15.6L26.4,28.7L0,32.4l3.5,43.8l14.4-1l-0.2-12.7l11.7,1.3
	L39.5,55.7z M25.6,52.8l-7.9,1.1l-0.2-13.1l9.8,3L25.6,52.8z M77.1,76.7l-1.6-12.3l-16.9,1.5l-0.9-5.1l12.5,1.9l2.2-10.1l-14-0.6
	l1.7-5L77,51.5l2.5-12.4l-33.1-4.7l-5.7,25.3l5,15.4L77.1,76.7z M122,75.3l-11.5-37.7l-21.5-3l-12,39l14.9,3.2l1.7-8.2l10.9-1.1
	l1.8,9.5L122,75.3z M102.7,58l-6.8-0.7l2-9.7l2.9,0.4L102.7,58z M165.9,69.4l-7.7-12.6l-9.4,8L138,61.2l-0.7-10.4l8.5-6.8l11,6.1
	l6.3-13.6l-16.9-6.7l-16.8,4.7l-10.6,14.3l6.6,23.7l22.2,6.8L165.9,69.4z M209.2,75.3l0.4-44l-17.9,1l1.6,15.9h-10.6l-2.1-16.9
	l-17.8,3.1l9.3,43.4l13.8-2.3L184.4,62l10.1-2.4l1.7,16.7L209.2,75.3z"/>
<g>
	<path fill="#FFFFFF" d="M10.3,12.6c0.7,0,1.3-0.1,2-0.2l0.2,2.3C8.5,15.4,4.3,15.5,1,15.5L0.7,13c0.6,0,1.2,0,1.9,0V5H1.2V2.4h10.5
		V5h-1.4V12.6z M5.7,12.9c0.5,0,1,0,1.5-0.1V5H5.7V12.9z M16.5,0.9v18.8h-3.2V0.9H16.5z"/>
	<path fill="#FFFFFF" d="M26.6,6.6c0,2.5,1.1,5.5,4.4,6.9L29.3,16c-2.1-0.8-3.5-2.5-4.3-4.4c-0.8,2.1-2.2,3.8-4.3,4.7L19,13.8
		c3.3-1.4,4.4-4.6,4.4-7.2V6.3h-3.7V3.8h3.7V1.4h3.2v2.5h3.6v2.5h-3.6V6.6z M34.8,0.9v18.7h-3.2V0.9H34.8z"/>
	<path fill="#FFFFFF" d="M54.4,9.1v2.5H37.6V9.1h5.9V6h3.2v3.1H54.4z M52.6,16.1c0,2.2-2.7,3.6-6.7,3.6s-6.7-1.4-6.7-3.6
		c0-2.2,2.7-3.6,6.7-3.6S52.6,13.8,52.6,16.1z M48.8,7.9c0.4-1.5,0.5-2.6,0.5-3.7h-9.9V1.6h13.1v1.5c0,1.5,0,3.1-0.5,5.1L48.8,7.9z
		 M49.4,16.1c0-0.8-1.2-1.2-3.5-1.2c-2.3,0-3.5,0.4-3.5,1.2c0,0.8,1.2,1.2,3.5,1.2C48.2,17.3,49.4,16.9,49.4,16.1z"/>
	<path fill="#FFFFFF" d="M72.9,13.6h-7v6.1h-3.2v-6.1h-6.8V11h17V13.6z M56.6,7.7c3.9-0.4,5.5-2,5.8-3.5h-5.1V1.7h14v2.5h-5
		c0.3,1.5,1.9,3,5.8,3.5l-1.2,2.5c-3.4-0.4-5.5-1.7-6.6-3.5c-1.1,1.8-3.2,3-6.6,3.5L56.6,7.7z"/>
</g>
</svg>
