<?xml version="1.0" encoding="utf-8"?>
<!-- Generator: Adobe Illustrator 27.1.1, SVG Export Plug-In . SVG Version: 6.00 Build 0)  -->
<svg version="1.2" baseProfile="tiny" id="daisy.svg"
	 xmlns="http://www.w3.org/2000/svg" xmlns:xlink="http://www.w3.org/1999/xlink" x="0px" y="0px" viewBox="0 0 189.6 76.8"
	 overflow="visible" xml:space="preserve">
<path id="DAISY" fill-rule="evenodd" fill="#FFFFFF" d="M30.2,74.7L41,63.3l1.7-19.1l-21.2-12L0,37.2l5.6,39.6L30.2,74.7z
	 M26.6,62.5l-8.1,3.1l-1.7-19.4l12,4.5L26.6,62.5z M83.4,74.7L72.6,39.5l-20.1-2.9L41.4,73.1l13.9,3l1.6-7.7l10.2-1l1.7,8.9
	L83.4,74.7z M65.4,58.5L59,57.8l1.9-9.1l2.7,0.4L65.4,58.5z M95.4,74.5l6.5-33.5l-16.4-3.5l-2.1,38L95.4,74.5z M135.6,74.4l8.3-15.9
	l-23-11.3l2.8-4.7l11.9,7.4l5.9-11.2l-13.9-7l-18,3.1l-8.2,14.4L124,60.1l-3.5,5.1l-13.3-8.2l-6.3,10.4l14,9.1L135.6,74.4z
	 M171.7,75.6l-1.2-13.7l19.1-20.1l-14-7.9l-10.3,16.1l-6-18.9L141.1,37l16.5,24.2l-2.8,13.3L171.7,75.6z"/>
<g>
	<path fill="#FFFFFF" d="M102,12.6c1.6,0,3-0.1,4.5-0.4l0.2,2.6c-2.1,0.4-4,0.5-6.6,0.5h-1.4V2.5h7.2V5h-4V12.6z M107.6,0.8h3v17.7
		h-3V9.7h-2.8V7.2h2.8V0.8z M114.6,0.5v18.7h-3.1V0.5H114.6z"/>
	<path fill="#FFFFFF" d="M127.3,8.5c0,4.2-2.1,6.8-5,6.8c-2.9,0-5-2.6-5-6.8c0-4.2,2.1-6.8,5-6.8C125.2,1.7,127.3,4.3,127.3,8.5z
		 M120.3,8.5c0,2.6,0.8,3.9,1.9,3.9s1.9-1.2,1.9-3.9s-0.8-3.9-1.9-3.9S120.3,5.9,120.3,8.5z M132.5,0.4v18.9h-3.2V0.4H132.5z"/>
	<path fill="#FFFFFF" d="M142.7,5.2c0,3,1.1,6.2,4.4,7.6l-1.7,2.5c-2.1-0.9-3.5-2.5-4.3-4.5c-0.8,2.3-2.2,4.1-4.4,5l-1.8-2.6
		c3.4-1.5,4.5-4.9,4.5-8V4.9h-3.7V2.2h10.6v2.6h-3.6V5.2z M150.9,0.5v18.7h-3.2V0.5H150.9z"/>
	<path fill="#FFFFFF" d="M170.5,8.7v2.5h-16.9V8.7h5.9V5.6h3.2v3.1H170.5z M168.7,15.7c0,2.2-2.7,3.6-6.7,3.6s-6.7-1.4-6.7-3.6
		c0-2.2,2.7-3.6,6.7-3.6S168.7,13.5,168.7,15.7z M164.9,7.5c0.4-1.5,0.5-2.6,0.5-3.7h-9.9V1.3h13.1v1.5c0,1.5,0,3.1-0.5,5.1
		L164.9,7.5z M165.5,15.7c0-0.8-1.2-1.2-3.5-1.2c-2.3,0-3.5,0.4-3.5,1.2c0,0.8,1.2,1.2,3.5,1.2C164.3,16.9,165.5,16.5,165.5,15.7z"
		/>
	<path fill="#FFFFFF" d="M189,13.2h-7v6.1h-3.2v-6.1H172v-2.5h17V13.2z M172.7,7.3c3.9-0.4,5.5-2,5.8-3.5h-5.1V1.3h14v2.5h-5
		c0.3,1.5,1.9,3,5.8,3.5l-1.2,2.5c-3.4-0.4-5.5-1.7-6.6-3.5c-1.1,1.8-3.2,3-6.6,3.5L172.7,7.3z"/>
</g>
</svg>
