<?xml version="1.0" encoding="utf-8"?>
<!-- Generator: Adobe Illustrator 27.1.1, SVG Export Plug-In . SVG Version: 6.00 Build 0)  -->
<svg version="1.2" baseProfile="tiny" id="koopa.svg"
	 xmlns="http://www.w3.org/2000/svg" xmlns:xlink="http://www.w3.org/1999/xlink" x="0px" y="0px" viewBox="0 0 204 76.9"
	 overflow="visible" xml:space="preserve">
<path id="KOOPA_" fill-rule="evenodd" fill="#FFFFFF" d="M43.1,64.2L27.4,52.5L40,39.1l-13.2-8.5l-9.9,15.8l-1.2-13.8L0,33.9
	l5.7,40.8l13.5-1.2l-1.1-12.9L31.2,74L43.1,64.2z M79.9,69.4l2.6-19.9L71.1,37.8l-17.5-2.4l-13.2,15l3.9,19.9l18.4,6.6L79.9,69.4z
	 M70.4,57.8l-7.1,6.8l-8-3.2l-0.2-9.6l10.1-3.3L70.4,57.8z M121.8,69.4l2.6-19.9L113,37.8l-17.5-2.4l-13.2,15l3.9,19.9l18.4,6.6
	L121.8,69.4z M112.4,57.8l-7.1,6.8l-8-3.2l-0.2-9.6l10.1-3.3L112.4,57.8z M162.1,55.1l3.2-14.6l-15.4-10.7l-24.7,3.4l3.3,41
	l13.5-0.9l-0.2-11.9l11,1.2L162.1,55.1z M149.1,52.3l-7.4,1l-0.2-12.3l9.2,2.8L149.1,52.3z M204,73.4l-10.8-35.3l-20.1-2.8L162,71.8
	l13.9,3l1.6-7.7l10.1-1l1.7,8.9L204,73.4z M186,57.2l-6.4-0.7l1.9-9.1l2.7,0.3L186,57.2z"/>
<g>
	<path fill="#FFFFFF" d="M184.2,13.3h-6.9v6.3h-3.2v-6.3h-6.8v-2.6h11.5c0.2-0.8,0.3-1.6,0.4-2.3l-10.3,0.5l-0.3-2.7l10.9-0.3
		c0-0.6,0-1.1,0-1.6h-10.3V1.8h13.4v1.7c0,2,0,4.1-0.6,7.2h2.3V13.3z"/>
	<path fill="#FFFFFF" d="M194.8,12.7c0.6-0.1,1.2-0.1,1.8-0.2l0.2,2.3c-3.7,0.7-7.9,0.8-11,0.8l-0.3-2.6c0.6,0,1.2,0,1.9,0V5h-1.4
		V2.5h10.3V5h-1.4V12.7z M190.4,12.9c0.4,0,0.9,0,1.3-0.1V5h-1.3V12.9z M203,10.4h-2.5v9.2h-3.2V0.9h3.2v6.9h2.5V10.4z"/>
</g>
</svg>
