<?xml version="1.0" encoding="utf-8"?>
<!-- Generator: Adobe Illustrator 27.1.1, SVG Export Plug-In . SVG Version: 6.00 Build 0)  -->
<svg version="1.2" baseProfile="tiny" id="mario.svg"
	 xmlns="http://www.w3.org/2000/svg" xmlns:xlink="http://www.w3.org/1999/xlink" x="0px" y="0px" viewBox="0 0 194.8 76.7"
	 overflow="visible" xml:space="preserve">
<path id="MARIO" fill-rule="evenodd" fill="#FFFFFF" d="M52.3,74.6L47,35.3l-10.5-1.5l-7,10.9l-3.6-12.4l-11-1.6L0,66.7l14.9,6.8
	l6.3-20.6l6,10.2l8.6-8.2L36,76L52.3,74.6z M93.7,73.3L82.9,38l-20.1-2.8L51.7,71.7l13.9,3l1.6-7.7l10.2-1l1.7,8.9L93.7,73.3z
	 M75.7,57l-6.4-0.7l1.9-9l2.7,0.3L75.7,57z M135.1,68.5l-12.4-10.2l6.9-4.7l3.2-13.3l-15.4-10.7l-24.7,3.4l3.3,41l13.5-0.9
	l-0.2-12.8l10.6,15L135.1,68.5z M116.6,51.6l-7.4,1.6l-0.2-12.2l9.2,2.8L116.6,51.6z M147,73.1l6.5-33.5l-16.4-3.5l-2.1,38L147,73.1
	z M192.2,69.2l2.6-19.9l-11.4-11.7l-17.5-2.4l-13.2,15l3.9,19.9l18.4,6.6L192.2,69.2z M182.8,57.6l-7.1,6.8l-8-3.2l-0.2-9.6
	l10.1-3.3L182.8,57.6z"/>
<g>
	<path fill="#FFFFFF" d="M140.8,1.9h9.2v12.6h-9.2V1.9z M144,12h2.8V4.4H144V12z M157.7,9.7h-2.5v9.3H152V0.2h3.2V7h2.5V9.7z"/>
	<path fill="#FFFFFF" d="M163,12.1c2.7,0,4.9-0.2,7.2-0.6l0.3,2.6c-2.8,0.5-5.6,0.6-9.1,0.6h-1.7v-8h5.6V4.2h-5.7V1.7h9v7.6H163
		V12.1z M174.5,0.1V19h-3.2V0.1H174.5z"/>
	<path fill="#FFFFFF" d="M194.2,14.3v2.6h-17v-2.6h6.9v-2.8c-3.2-0.5-5.5-2.4-5.5-5.2c0-3.2,3.1-5.3,7.1-5.3s7.1,2.1,7.1,5.3
		c0,2.8-2.3,4.7-5.5,5.2v2.8H194.2z M185.7,9.1c2.4,0,3.9-1,3.9-2.8c0-1.8-1.6-2.8-3.9-2.8c-2.3,0-3.9,1-3.9,2.8
		C181.7,8.1,183.3,9.1,185.7,9.1z"/>
</g>
</svg>
