<?xml version="1.0" encoding="utf-8"?>
<!-- Generator: Adobe Illustrator 27.1.1, SVG Export Plug-In . SVG Version: 6.00 Build 0)  -->
<svg version="1.2" baseProfile="tiny" id="_07.svg" xmlns="http://www.w3.org/2000/svg" xmlns:xlink="http://www.w3.org/1999/xlink"
	 x="0px" y="0px" viewBox="0 0 198.8 78.6" overflow="visible" xml:space="preserve">
<path id="DAISY" fill-rule="evenodd" fill="#FFFFFF" d="M32.3,76.3l11.5-12.2l1.8-20.4L23,30.9L0,36.2l6,42.3L32.3,76.3z M28.5,63.3
	l-8.6,3.3l-1.8-20.8l12.8,4.8L28.5,63.3z M86.5,76.3L75,38.6l-21.5-3l-12,39l14.9,3.2l1.7-8.2L69,68.5l1.8,9.6L86.5,76.3z M67.2,59
	l-6.8-0.8l2-9.7l2.9,0.4L67.2,59z M98.9,76.1l7-35.8l-17.6-3.7l-2.2,40.6L98.9,76.1z M141.6,76l8.9-17l-24.6-12l3-5l12.8,7.9l6.3-12
	L133,30.4l-19.2,3.3L105,49.2l24.1,11.5l-3.7,5.4l-14.2-8.8l-6.8,11.2l15,9.7L141.6,76z M179.7,77.3l-1.3-14.6l20.4-21.4l-15-8.4
	l-11,17.2l-6.5-20.2L146.9,36l17.6,25.9l-3,14.3L179.7,77.3z"/>
<g>
	<path fill="#FFFFFF" d="M3.8,13c1.6,0,3-0.1,4.5-0.4l0.2,2.6c-2.1,0.4-4,0.5-6.6,0.5H0.6V2.8h7.2v2.5h-4V13z M9.4,1.1h3v17.7h-3
		v-8.8H6.5V7.5h2.8V1.1z M16.4,0.8v18.7h-3.1V0.8H16.4z"/>
	<path fill="#FFFFFF" d="M29,8.8c0,4.2-2.1,6.8-5,6.8c-2.9,0-5-2.6-5-6.8C19,4.6,21.1,2,24,2C26.9,2,29,4.6,29,8.8z M22.1,8.8
		c0,2.6,0.8,3.9,1.9,3.9s1.9-1.2,1.9-3.9S25.2,5,24,5S22.1,6.2,22.1,8.8z M34.2,0.8v18.9H31V0.8H34.2z"/>
	<path fill="#FFFFFF" d="M44.5,5.5c0,3,1.1,6.2,4.4,7.6l-1.7,2.5c-2.1-0.9-3.5-2.5-4.3-4.5c-0.8,2.3-2.2,4.1-4.4,5l-1.8-2.6
		c3.4-1.5,4.5-4.9,4.5-8V5.2h-3.7V2.6h10.6v2.6h-3.6V5.5z M52.6,0.8v18.7h-3.2V0.8H52.6z"/>
	<path fill="#FFFFFF" d="M72.3,9v2.5H55.4V9h5.9V5.9h3.2V9H72.3z M70.4,16c0,2.2-2.7,3.6-6.7,3.6S57,18.3,57,16
		c0-2.2,2.7-3.6,6.7-3.6S70.4,13.8,70.4,16z M66.6,7.8c0.4-1.5,0.5-2.6,0.5-3.7h-9.9V1.6h13.1v1.5c0,1.5,0,3.1-0.5,5.1L66.6,7.8z
		 M67.2,16c0-0.8-1.2-1.2-3.5-1.2c-2.3,0-3.5,0.4-3.5,1.2c0,0.8,1.2,1.2,3.5,1.2C66,17.2,67.2,16.9,67.2,16z"/>
	<path fill="#FFFFFF" d="M90.8,13.5h-7v6.1h-3.2v-6.1h-6.8V11h17V13.5z M74.5,7.7c3.9-0.4,5.5-2,5.8-3.5h-5.1V1.7h14v2.5h-5
		c0.3,1.5,1.9,3,5.8,3.5l-1.2,2.5c-3.4-0.4-5.5-1.7-6.6-3.5c-1.1,1.8-3.2,3-6.6,3.5L74.5,7.7z"/>
</g>
</svg>
