<?xml version="1.0" encoding="utf-8"?>
<!-- Generator: Adobe Illustrator 27.1.1, SVG Export Plug-In . SVG Version: 6.00 Build 0)  -->
<svg version="1.2" baseProfile="tiny" id="_10.svg" xmlns="http://www.w3.org/2000/svg" xmlns:xlink="http://www.w3.org/1999/xlink"
	 x="0px" y="0px" viewBox="0 0 298.3 80" overflow="visible" xml:space="preserve">
<path id="ROSETTA" fill-rule="evenodd" fill="#FFFFFF" d="M45.4,71.2L32.1,60.3l7.4-5l3.4-14.2L26.4,29.7L0,33.3l3.5,43.8l14.4-1
	l-0.2-13.6l11.3,16L45.4,71.2z M25.6,53.1l-7.9,1.7l-0.2-13.1l9.8,3L25.6,53.1z M84.9,72l2.7-21.3L75.5,38.2l-18.7-2.5L42.7,51.7
	L46.9,73l19.7,7L84.9,72z M74.8,59.6l-7.6,7.3l-8.6-3.4l-0.2-10.3l10.8-3.5L74.8,59.6z M123.9,76l8.9-17l-24.7-12l3-5l12.8,7.9
	l6.3-12l-14.9-7.5l-19.2,3.3l-8.8,15.4l24.1,11.5l-3.7,5.4l-14.2-8.8l-6.8,11.2l15,9.7L123.9,76z M167.8,77.7l-1.6-12.3l-16.9,1.5
	l-0.9-5.1l12.5,1.9l2.2-10.1L149,53l1.7-5l16.9,4.4l2.5-12.4L137,35.3l-5.7,25.3l5,15.4L167.8,77.7z M204.3,76.1l-5.2-28.4l15.6-2.4
	l-1.2-13.8l-45.1,2.3l1.6,18.2l16.1-2.4l0.4,28L204.3,76.1z M248.7,76.1l-5.2-28.4l15.6-2.4l-1.2-13.8l-45.1,2.3l1.6,18.2l16.1-2.4
	l0.4,28L248.7,76.1z M298.3,76.3l-11.6-37.7l-21.5-3l-12,39l14.9,3.2l1.7-8.2l10.9-1.1l1.8,9.5L298.3,76.3z M279,58.9l-6.8-0.7
	l2-9.7l2.9,0.4L279,58.9z"/>
<g>
	<path fill="#FFFFFF" d="M242.7,15.2v2.6h-17v-2.6h6.9v-2.4h-5V6.2h10.1V4.6h-10.1V2.1h13.3v6.6h-10.1v1.6h10.5v2.5h-5.5v2.4H242.7z
		"/>
	<path fill="#FFFFFF" d="M251.8,10.7c-1.5-0.5-2.6-1.4-3.2-2.6c-0.7,1.2-1.7,2.2-3.4,2.8l-1.5-2.4c2.4-0.8,3.2-2.4,3.3-4h-2.7V2h8.2
		v2.5h-2.4c0.1,1.6,0.9,3.1,3.1,3.8L251.8,10.7z M260.7,17.1v2.4h-13.5v-5.3h9.7v-0.6h-9.8v-2.4h13v5.3h-9.7v0.6H260.7z M253.4,4.8
		V1.3h3v9.2h-3V7.4h-1.5V4.8H253.4z M260.2,10.6h-3.1V1h3.1V10.6z"/>
	<path fill="#FFFFFF" d="M266.7,12.9c2.7,0,4.9-0.2,7.2-0.6l0.3,2.6c-2.8,0.5-5.6,0.6-9.1,0.6h-1.7v-8h5.6V5h-5.7V2.5h9V10h-5.6
		V12.9z M278.2,0.9v18.9H275V0.9H278.2z"/>
	<path fill="#FFFFFF" d="M284.6,12.5c2.2-0.1,4.6-0.3,7-0.7l0.3,2.6c-3.1,0.6-6.2,0.8-8.9,0.8h-1.7V2.7h3.2V12.5z M298.1,10.5h-2.4
		v9.2h-3.2V0.9h3.2v6.9h2.4V10.5z"/>
</g>
</svg>
