<?xml version="1.0" encoding="utf-8"?>
<!-- Generator: Adobe Illustrator 27.1.1, SVG Export Plug-In . SVG Version: 6.00 Build 0)  -->
<svg version="1.2" baseProfile="tiny" id="Layer_1" xmlns="http://www.w3.org/2000/svg" xmlns:xlink="http://www.w3.org/1999/xlink"
	 x="0px" y="0px" viewBox="0 0 263.9 79" overflow="visible" xml:space="preserve">
<path fill-rule="evenodd" fill="#FFFFFF" d="M46.1,65.4L29.3,52.9l13.5-14.3l-14.2-9.1L18,46.4l-1.3-14.8L0,33.1l6.1,43.6l14.5-1.2
	l-1.2-13.8l14,14.3L46.1,65.4z M57.7,75.1l7-35.8l-17.6-3.7l-2.2,40.6L57.7,75.1z M111.3,72.2l0.1-42l-17.7,1.5l2,22.3L79.9,31.8
	l-16,5.2l6.7,40.7l14.8-1.2l-2-18.4l15,18.2L111.3,72.2z M155.3,71l2.7-21.3l-12.2-12.5l-18.7-2.5L113,50.7l4.2,21.3l19.7,7
	L155.3,71z M145.2,58.6l-7.6,7.3l-8.6-3.4l-0.2-10.3l10.8-3.5L145.2,58.6z M197.9,55.7l3.4-15.6l-16.4-11.4l-26.4,3.7l3.5,43.8
	l14.4-1l-0.2-12.7l11.7,1.3L197.9,55.7z M184,52.8l-7.9,1.1l-0.2-13.1l9.8,3L184,52.8z M213.2,75.1l6.9-35.8l-17.6-3.7l-2.2,40.6
	L213.2,75.1z M261.2,71l2.7-21.3l-12.2-12.5l-18.7-2.5l-14.2,16.1l4.2,21.3l19.7,7L261.2,71z M251.1,58.6l-7.6,7.3l-8.6-3.4
	l-0.2-10.3l10.8-3.5L251.1,58.6z"/>
<g>
	<path fill="#FFFFFF" d="M11.2,2.2c0,6-1.4,10.9-8.6,14.5L1,14.2c2.8-1.4,4.6-2.9,5.7-4.8L1.6,9.8L1.2,7.2l6.5-0.3
		C7.8,6.2,8,5.5,8,4.8H2.2V2.2H11.2z M16.8,0.5v18.7h-3.2V0.5H16.8z"/>
	<path fill="#FFFFFF" d="M36.4,14.8v2.6h-17v-2.6h6.9v-3.9h-5.1v-9h3.2v6.5h10.2v2.5h-5.2v3.9H36.4z"/>
	<path fill="#FFFFFF" d="M47.4,12.3c0.7,0,1.3-0.1,2-0.2l0.2,2.3c-3.9,0.7-8.1,0.8-11.5,0.8l-0.3-2.6c0.6,0,1.2,0,1.9,0v-8h-1.4V2.1
		h10.5v2.5h-1.4V12.3z M42.7,12.5c0.5,0,1,0,1.5-0.1V4.6h-1.5V12.5z M53.6,0.5v18.8h-3.2V0.5H53.6z"/>
	<path fill="#FFFFFF" d="M73.2,14.6v2.6h-17v-2.6h6.9v-2.8c-3.2-0.5-5.5-2.4-5.5-5.2c0-3.2,3.1-5.3,7.1-5.3s7.1,2.1,7.1,5.3
		c0,2.8-2.3,4.7-5.5,5.2v2.8H73.2z M64.7,9.4c2.4,0,3.9-1,3.9-2.8c0-1.8-1.6-2.8-3.9-2.8c-2.3,0-3.9,1-3.9,2.8
		C60.8,8.4,62.3,9.4,64.7,9.4z"/>
</g>
</svg>
