<?xml version="1.0" encoding="utf-8"?>
<!-- Generator: Adobe Illustrator 27.1.1, SVG Export Plug-In . SVG Version: 6.00 Build 0)  -->
<svg version="1.2" baseProfile="tiny" id="wario.svg"
	 xmlns="http://www.w3.org/2000/svg" xmlns:xlink="http://www.w3.org/1999/xlink" x="0px" y="0px" viewBox="0 0 195.9 76.7"
	 overflow="visible" xml:space="preserve">
<path id="WARIO" fill-rule="evenodd" fill="#FFFFFF" d="M45.2,73.6l10.4-32L40,37.6l-4.8,19.8l-6.2-10.6l-8.1,9.5l-2-25.3L0,34
	l7.9,37.8l14,1.6l5.7-9.6l4,10.7L45.2,73.6z M94.9,73.3L84.1,38L64,35.2L52.8,71.7l13.9,3l1.6-7.7l10.1-1l1.7,8.9L94.9,73.3z
	 M76.8,57l-6.4-0.7l1.9-9.1l2.7,0.4L76.8,57z M136.2,68.5l-12.4-10.1l6.9-4.7l3.2-13.3l-15.4-10.7l-24.7,3.4l3.3,41l13.5-0.9
	l-0.2-12.8l10.6,15L136.2,68.5z M117.7,51.6l-7.4,1.6l-0.2-12.2l9.2,2.9L117.7,51.6z M148.2,73.1l6.5-33.5l-16.4-3.5l-2.1,38
	L148.2,73.1z M193.4,69.2l2.6-19.9l-11.4-11.7l-17.5-2.4l-13.2,15l3.9,19.9l18.4,6.6L193.4,69.2z M183.9,57.6l-7.1,6.8l-8-3.2
	l-0.2-9.6l10.1-3.3L183.9,57.6z"/>
<g>
	<path fill="#FFFFFF" d="M8.2,13.3c1.3-0.1,2.6-0.2,3.8-0.3l0.3,2.3C8.4,16,4.3,16,1.2,16l-0.4-2.6c1.2,0,2.6,0,4.1,0v-2.3
		c-2.1-0.6-3.6-2.3-3.6-4.5c0-2.7,2.3-4.7,5.2-4.7c2.9,0,5.2,2,5.2,4.7c0,2.2-1.5,3.9-3.5,4.5V13.3z M4.5,6.5c0,1.3,0.9,2,2.1,2
		c1.1,0,2-0.7,2-2c0-1.3-0.9-2-2-2C5.4,4.5,4.5,5.2,4.5,6.5z M18.2,10.6H16v8.9h-3.2V0.8H16v7.2h2.2V10.6z"/>
	<path fill="#FFFFFF" d="M23.7,12.7c2.7,0,4.9-0.2,7.2-0.6l0.3,2.6c-2.8,0.5-5.6,0.6-9.1,0.6h-1.7v-8H26V4.8h-5.7V2.3h9v7.6h-5.6
		V12.7z M35.2,0.7v18.9h-3.2V0.7H35.2z"/>
	<path fill="#FFFFFF" d="M54.8,14.9v2.6h-17v-2.6h6.9v-2.8c-3.2-0.5-5.5-2.4-5.5-5.2c0-3.2,3.1-5.3,7.1-5.3s7.1,2.1,7.1,5.3
		c0,2.8-2.3,4.7-5.5,5.2v2.8H54.8z M46.3,9.7c2.4,0,3.9-1,3.9-2.8c0-1.8-1.6-2.8-3.9-2.8c-2.3,0-3.9,1-3.9,2.8
		C42.4,8.7,44,9.7,46.3,9.7z"/>
</g>
</svg>
