<?xml version="1.0" encoding="utf-8"?>
<!-- Generator: Adobe Illustrator 27.1.1, SVG Export Plug-In . SVG Version: 6.00 Build 0)  -->
<svg version="1.2" baseProfile="tiny" id="donkey.svg"
	 xmlns="http://www.w3.org/2000/svg" xmlns:xlink="http://www.w3.org/1999/xlink" x="0px" y="0px" viewBox="0 0 254.6 127.3"
	 overflow="visible" xml:space="preserve">
<path id="DONKEY_KONG" fill-rule="evenodd" fill="#FFFFFF" d="M30.2,74.6L41,63.2l1.7-19.1l-21.2-12L0,37.1l5.6,39.6L30.2,74.6z
	 M26.6,62.4l-8.1,3.1l-1.7-19.4l12,4.5L26.6,62.4z M82,70.6l2.6-19.9L73.1,39l-17.5-2.4l-13.2,15l3.9,19.9L64.8,78L82,70.6z
	 M72.5,59l-7.1,6.8l-8-3.2L57.3,53l10.1-3.3L72.5,59z M128.5,71.7l0.1-39.3l-16.5,1.5l1.9,20.9L99.3,33.9l-15,4.9l6.3,38.1l13.9-1.2
	l-1.9-17.2l14,17L128.5,71.7z M174.3,65.4l-15.7-11.7l12.6-13.3L158,31.8l-9.9,15.8l-1.2-13.8l-15.6,1.3l5.7,40.8l13.5-1.2
	l-1.1-12.9l13.1,13.3L174.3,65.4z M206.3,75.9l-1.5-11.5L189,65.8l-0.8-4.8l11.7,1.7l2-9.5l-13.1-0.5l1.6-4.6l15.8,4.1l2.3-11.6
	l-31-4.4L172.2,60l4.6,14.5L206.3,75.9z M236.7,75.5l-1.2-13.7l19.1-20.1l-14-7.9L230.3,50l-6-18.9l-18.2,5.9l16.5,24.2l-2.8,13.3
	L236.7,75.5z M123.4,114.6l-15.7-11.7l12.6-13.3l-13.2-8.5l-9.9,15.8l-1.2-13.8l-15.6,1.3l5.7,40.8l13.5-1.2l-1.1-12.9l13.1,13.3
	L123.4,114.6z M160.2,119.9l2.6-19.9l-11.4-11.7l-17.5-2.4l-13.2,15l3.9,19.9l18.4,6.5L160.2,119.9z M150.8,108.3l-7.1,6.8l-8-3.2
	l-0.2-9.6l10.1-3.3L150.8,108.3z M206.8,121l0.1-39.3l-16.5,1.5l1.9,20.9l-14.7-20.8l-15,4.9l6.3,38.1l13.9-1.2l-1.9-17.2l14,17
	L206.8,121z M253.7,119.1l-0.9-20.4l-20.9,1.8l0.1,11.2l8.9-3.3l1.1,2.8l-7.9,3.1l-8.1-4.1l0.5-11.4l6.3-6l11.4,5l5.3-12.6
	l-14.9-5.1l-16.9,4.4l-9.1,14.7l5.9,21.2l18.2,6.2L253.7,119.1z"/>
<g>
	<path fill="#FFFFFF" d="M217,8.7v2.5h-17V8.7h6.9V7.5H202V0.9h13v2.5h-9.8V5h9.9v2.5h-5v1.2H217z M215,15.5c0,2.2-2.5,3.5-6.6,3.5
		c-4.1,0-6.6-1.3-6.6-3.5c0-2.2,2.5-3.5,6.6-3.5C212.5,12,215,13.2,215,15.5z M211.7,15.5c0-0.8-1-1.1-3.3-1.1
		c-2.3,0-3.3,0.3-3.3,1.1c0,0.8,1,1.1,3.3,1.1C210.7,16.5,211.7,16.3,211.7,15.5z"/>
	<path fill="#FFFFFF" d="M228.6,1.8c0,6-1.4,10.9-8.6,14.5l-1.7-2.5c2.8-1.4,4.6-2.9,5.7-4.8l-5.1,0.5l-0.4-2.7l6.5-0.3
		c0.2-0.6,0.3-1.3,0.3-2.1h-5.8V1.8H228.6z M234.1,0.1v18.7h-3.2V0.1H234.1z"/>
	<path fill="#FFFFFF" d="M253.7,8.9v2.5h-16.9V8.9h5.9V7h3.2v1.9H253.7z M248.7,3.9c0-0.3,0-0.5,0-0.8h-10.1V0.6h13.3v1.6
		c0,1.7,0,3.5-0.4,5.9l-3.2-0.2c0.1-0.6,0.2-1.2,0.3-1.7l-10.1,0.4L238.1,4L248.7,3.9z M251.8,15.5c0,2.2-2.5,3.4-6.6,3.4
		c-4.1,0-6.6-1.2-6.6-3.4c0-2.2,2.5-3.4,6.6-3.4C249.3,12.1,251.8,13.3,251.8,15.5z M248.5,15.5c0-0.7-1-1-3.3-1
		c-2.3,0-3.3,0.2-3.3,1c0,0.7,1,1,3.3,1C247.5,16.5,248.5,16.3,248.5,15.5z"/>
</g>
</svg>
