<?xml version="1.0" encoding="utf-8"?>
<!-- Generator: Adobe Illustrator 27.1.1, SVG Export Plug-In . SVG Version: 6.00 Build 0)  -->
<svg version="1.2" baseProfile="tiny" id="_11.svg" xmlns="http://www.w3.org/2000/svg" xmlns:xlink="http://www.w3.org/1999/xlink"
	 x="0px" y="0px" viewBox="0 0 311.4 79" overflow="visible" xml:space="preserve">
<path id="KOOPA_Jr." fill-rule="evenodd" fill="#FFFFFF" d="M46.7,65.2L29.9,52.7l13.5-14.3l-14.2-9.1L18.6,46.3l-1.3-14.8L0.6,32.9
	l6.1,43.6l14.5-1.2l-1.2-13.8l14,14.3L46.7,65.2z M85.6,70.8l2.7-21.3L76.1,37l-18.7-2.5L43.3,50.6l4.2,21.3l19.7,7L85.6,70.8z
	 M75.5,58.4l-7.6,7.3l-8.6-3.4L59.1,52l10.8-3.5L75.5,58.4z M130,70.8l2.7-21.3L120.6,37l-18.7-2.5L87.7,50.6L92,71.8l19.7,7
	L130,70.8z M119.9,58.4l-7.6,7.3l-8.6-3.4L103.6,52l10.8-3.5L119.9,58.4z M172.7,55.6l3.4-15.6l-16.4-11.4l-26.4,3.7l3.5,43.8
	l14.4-1l-0.2-12.7l11.7,1.3L172.7,55.6z M158.8,52.6l-7.9,1.1l-0.2-13.1l9.8,3L158.8,52.6z M217,75.2l-11.5-37.7l-21.5-3l-12,39
	l14.9,3.2l1.7-8.2l10.9-1.1l1.8,9.6L217,75.2z M197.7,57.8l-6.8-0.8l2-9.7l2.9,0.4L197.7,57.8z M265.2,67.2l-0.5-34.8l-19.7-1.2
	l5.5,29.6l-8.9,5l-2-12.8L223,60.3l8.3,14.6l18.6,4.1L265.2,67.2z M285.1,74.9l-1-13.1l5.8-6.4l6,5.3l6.5-14.3l-10.2-6.2l-8.9,10.7
	l-0.5-8.8l-16.6,3.5l5.6,31.5L285.1,74.9z M310.4,75.2l1.1-11.7L297.9,63l0.8,13L310.4,75.2z"/>
<g>
	<path fill="#FFFFFF" d="M18.3,12.8h-6.9v6.3H8.1v-6.3H1.3v-2.6h11.5c0.2-0.8,0.3-1.6,0.4-2.3L2.9,8.4L2.5,5.7l10.9-0.3
		c0-0.6,0-1.1,0-1.6H3.2V1.3h13.4V3c0,2,0,4.1-0.6,7.2h2.3V12.8z"/>
	<path fill="#FFFFFF" d="M28.9,12.1c0.6-0.1,1.2-0.1,1.8-0.2l0.2,2.3c-3.7,0.7-7.9,0.8-11,0.8l-0.3-2.6c0.6,0,1.2,0,1.9,0v-8h-1.4
		V1.9h10.3v2.5h-1.4V12.1z M24.4,12.4c0.4,0,0.9,0,1.3-0.1V4.5h-1.3V12.4z M37.1,9.9h-2.5v9.2h-3.2V0.4h3.2v6.9h2.5V9.9z"/>
	<path fill="#FFFFFF" d="M55.1,13.1h-7v6.1h-3.2v-6.1h-6.8v-2.5h17V13.1z M38.8,7.2c3.9-0.4,5.5-2,5.8-3.5h-5.1V1.2h14v2.5h-5
		c0.3,1.5,1.9,3,5.8,3.5l-1.2,2.5c-3.4-0.4-5.5-1.7-6.6-3.5c-1.1,1.8-3.2,3-6.6,3.5L38.8,7.2z"/>
	<path fill="#FFFFFF" d="M60.6,11.9c2.3-0.1,4.8-0.3,7.3-0.8l0.3,2.7c-3.2,0.7-6.3,0.8-9.2,0.8h-1.7V2.1h3.2V11.9z M72.4,0.4v18.7
		h-3.2V0.4H72.4z"/>
	<path fill="#FFFFFF" d="M90.8,0.3v18.9h-3.2V9.5H85c-0.3,3.5-2.3,5.7-4.9,5.7c-2.8,0-4.9-2.6-4.9-6.8c0-4.2,2.1-6.8,4.9-6.8
		c2.5,0,4.4,2,4.9,5.3h2.6V0.3H90.8z M82,8.4c0-2.6-0.7-3.8-1.9-3.8c-1.1,0-1.9,1.2-1.9,3.8c0,2.7,0.7,3.9,1.9,3.9
		C81.2,12.2,82,11,82,8.4z"/>
</g>
</svg>
