<?xml version="1.0" encoding="utf-8"?>
<!-- Generator: Adobe Illustrator 27.1.1, SVG Export Plug-In . SVG Version: 6.00 Build 0)  -->
<svg version="1.2" baseProfile="tiny" id="_09.svg" xmlns="http://www.w3.org/2000/svg" xmlns:xlink="http://www.w3.org/1999/xlink"
	 x="0px" y="0px" viewBox="0 0 270.2 77.8" overflow="visible" xml:space="preserve">
<path id="WALUIGI" fill-rule="evenodd" fill="#FFFFFF" d="M48.4,75.2L59.5,41l-16.7-4.4l-5.1,21.1l-6.6-11.3l-8.7,10.2l-2.1-27
	L0,32.8l8.4,40.4l15,1.7l6.1-10.2l4.3,11.4L48.4,75.2z M98.8,74.8L87.3,37.1l-21.5-3l-12,39l14.9,3.2l1.7-8.2l10.9-1.1l1.8,9.6
	L98.8,74.8z M79.5,57.4l-6.8-0.8l2-9.7l2.9,0.4L79.5,57.4z M135,73.7l0.5-18.2l-20.2,6.1L114.7,31l-18.6,2.3l6.3,42.8L135,73.7z
	 M169.1,75.1l8.5-10.2l3.4-21.5l-16.7-3.1l-1.1,20.9l-10.2,1.7l3.7-27l-18.9-1.6l-1.8,31.9l10.2,8.9L169.1,75.1L169.1,75.1z
	 M194.7,74.6l7-35.8l-17.6-3.7l-2.2,40.6L194.7,74.6z M248.5,69.6l-0.9-21.8l-22.4,1.9l0.1,12l9.5-3.5l1.2,3l-8.5,3.3l-8.6-4.4
	l0.5-12.2l6.8-6.4l12.2,5.4l5.7-13.5l-16-5.5L210,32.8l-9.7,15.8l6.3,22.7l19.4,6.6L248.5,69.6z M263.2,74.6l7-35.8l-17.6-3.7
	l-2.2,40.6L263.2,74.6z"/>
<g>
	<path fill="#FFFFFF" d="M206.2,12.9c1.3-0.1,2.6-0.2,3.8-0.3l0.3,2.3c-3.8,0.8-7.9,0.7-11,0.7l-0.4-2.6c1.2,0,2.6,0,4.1,0v-2.3
		c-2.1-0.6-3.6-2.3-3.6-4.5c0-2.7,2.3-4.7,5.2-4.7c2.9,0,5.2,2,5.2,4.7c0,2.2-1.5,3.9-3.5,4.5V12.9z M202.5,6.1c0,1.3,0.9,2,2.1,2
		c1.1,0,2-0.7,2-2c0-1.3-0.9-2-2-2C203.4,4.1,202.5,4.8,202.5,6.1z M216.3,10.1h-2.2v8.9h-3.2V0.3h3.2v7.2h2.2V10.1z"/>
	<path fill="#FFFFFF" d="M234.5,14h-6.9v5.1h-3.2V14h-6.8v-2.5h17V14z M229.3,3.4h-9.9V0.9h13.2v6h-9.9v1.1H233v2.5h-13.6v-6h9.9
		V3.4z"/>
	<path fill="#FFFFFF" d="M246.4,8.4c0,4.2-2.1,6.8-5,6.8c-2.9,0-5-2.6-5-6.8c0-4.2,2.1-6.8,5-6.8C244.2,1.6,246.4,4.2,246.4,8.4z
		 M239.4,8.4c0,2.6,0.8,3.9,1.9,3.9s1.9-1.2,1.9-3.9s-0.8-3.9-1.9-3.9S239.4,5.7,239.4,8.4z M251.6,0.3v18.9h-3.2V0.3H251.6z"/>
	<path fill="#FFFFFF" d="M261.8,5.1c0,3,1.1,6.2,4.4,7.6l-1.7,2.5c-2.1-0.9-3.5-2.5-4.3-4.5c-0.8,2.3-2.2,4.1-4.4,5l-1.8-2.6
		c3.4-1.5,4.5-4.9,4.5-8V4.7h-3.7V2.1h10.6v2.6h-3.6V5.1z M270,0.4v18.7h-3.2V0.4H270z"/>
</g>
</svg>
