<?xml version="1.0" encoding="utf-8"?>
<!-- Generator: Adobe Illustrator 27.1.1, SVG Export Plug-In . SVG Version: 6.00 Build 0)  -->
<svg version="1.2" baseProfile="tiny" id="yoshi.svg"
	 xmlns="http://www.w3.org/2000/svg" xmlns:xlink="http://www.w3.org/1999/xlink" x="0px" y="0px" viewBox="0 0 191.4 76.8"
	 overflow="visible" xml:space="preserve">
<path id="YOSHI" fill-rule="evenodd" fill="#FFFFFF" d="M30.6,74.2l-1.2-13.7l19.1-20.1l-14-7.9L24.2,48.7l-6-18.9L0,35.6l16.5,24.2
	l-2.8,13.3L30.6,74.2z M82.9,69.3l2.6-19.9L74.1,37.7l-17.5-2.4l-13.2,15l3.9,19.9l18.4,6.6L82.9,69.3z M73.5,57.7l-7.1,6.8l-8-3.2
	l-0.2-9.6l10.1-3.3L73.5,57.7z M119.7,73l8.3-15.9l-23-11.3l2.8-4.7l11.9,7.4l5.9-11.2l-13.9-7l-18,3.1l-8.2,14.4l22.5,10.8
	l-3.5,5.1l-13.3-8.2L85,66l14,9.1L119.7,73z M169.4,73.3l0.3-41.1L153,33.1l1.5,14.8h-9.9l-1.9-15.8L126.1,35l8.7,40.6l12.9-2.1
	l-1.6-12.6l9.4-2.3l1.6,15.6L169.4,73.3z M184.9,73.1l6.5-33.5L175,36.1l-2.1,38L184.9,73.1z"/>
<g>
	<path fill="#FFFFFF" d="M18,15v2.6H1V15h3.5v-4.4C3.2,9.7,2.4,8.4,2.4,6.8c0-3.1,3-5.2,7.1-5.2s7.1,2,7.1,5.2
		c0,1.6-0.8,2.9-2.1,3.8V15H18z M5.6,6.8c0,1.7,1.5,2.7,3.9,2.7s3.9-0.9,3.9-2.7c0-1.7-1.5-2.7-3.9-2.7S5.6,5.1,5.6,6.8z M7.7,15
		h3.5v-3.2c-0.6,0.1-1.2,0.1-1.8,0.1c-0.6,0-1.2,0-1.8-0.1V15z"/>
	<path fill="#FFFFFF" d="M27,4.6c0,3.5,1.1,6.9,4.5,8.4l-1.9,2.6c-2.1-0.9-3.4-2.5-4.2-4.6c-0.8,2.3-2.2,4.1-4.4,5.1l-1.9-2.7
		c3.5-1.5,4.7-5.1,4.7-8.8V2.3H27V4.6z M35.1,0.9v18.9h-3.2V0.9H35.1z"/>
</g>
</svg>
