<?xml version="1.0" encoding="utf-8"?>
<!-- Generator: Adobe Illustrator 27.1.1, SVG Export Plug-In . SVG Version: 6.00 Build 0)  -->
<svg version="1.2" baseProfile="tiny" id="_13.svg" xmlns="http://www.w3.org/2000/svg" xmlns:xlink="http://www.w3.org/1999/xlink"
	 x="0px" y="0px" viewBox="0 0 270.2 129.9" overflow="visible" xml:space="preserve">
<path id="DONKEY_KONG" fill-rule="evenodd" fill="#FFFFFF" d="M32.3,75l11.5-12.2l1.8-20.4L23,29.7L0,35l6,42.3L32.3,75z M28.5,62.1
	l-8.6,3.4l-1.8-20.8l12.8,4.8L28.5,62.1z M87.3,70.8L90,49.5L77.8,37l-18.7-2.5L45,50.5l4.2,21.3l19.7,7L87.3,70.8z M77.2,58.4
	l-7.6,7.3L61,62.3L60.8,52l10.8-3.5L77.2,58.4z M136.7,71.9l0.1-42l-17.7,1.6l2,22.3l-15.8-22.2l-16,5.2L96,77.5l14.8-1.2l-2-18.4
	l15,18.2L136.7,71.9z M185.3,65.2l-16.8-12.5l13.5-14.3l-14.2-9.1l-10.6,16.9l-1.3-14.8l-16.7,1.4l6.1,43.6l14.5-1.2l-1.2-13.8
	l14,14.3L185.3,65.2z M219,76.5l-1.6-12.3l-16.9,1.5l-0.9-5.1l12.5,1.9l2.2-10.1l-14-0.6l1.7-5l16.9,4.4l2.5-12.4l-33.1-4.7
	l-5.7,25.3l5,15.4L219,76.5z M251.1,76l-1.3-14.6l20.4-21.5l-15-8.4l-11,17.2l-6.5-20.2l-19.4,6.3l17.6,25.9l-3,14.3L251.1,76z
	 M126.2,116.3l-16.8-12.5l13.5-14.3l-14.2-9.1L98.1,97.3l-1.3-14.8L80.1,84l6.1,43.6l14.5-1.2l-1.2-13.8l14,14.3L126.2,116.3z
	 M165.1,121.9l2.7-21.3l-12.2-12.5L137,85.5l-14.2,16.1l4.2,21.3l19.7,7L165.1,121.9z M155,109.5l-7.6,7.3l-8.6-3.4l-0.2-10.3
	l10.8-3.5L155,109.5z M214.5,123.1l0.1-42L197,82.6l2,22.3l-15.8-22.2l-16,5.2l6.7,40.7l14.8-1.2l-2-18.4l15,18.2L214.5,123.1z
	 M264.3,121l-0.9-21.8l-22.4,1.9l0.1,12l9.5-3.5l1.2,3l-8.5,3.4l-8.6-4.4l0.5-12.1l6.8-6.4l12.2,5.4l5.7-13.5l-16-5.4l-18.1,4.7
	L216,99.9l6.3,22.7l19.4,6.6L264.3,121z"/>
<g>
	<path fill="#FFFFFF" d="M232.8,8.5v2.5h-17V8.5h6.9V7.3h-4.9V0.7h13v2.5H221v1.6h9.9v2.5h-5v1.2H232.8z M230.7,15.3
		c0,2.2-2.5,3.5-6.6,3.5c-4.1,0-6.6-1.3-6.6-3.5c0-2.2,2.5-3.5,6.6-3.5C228.2,11.7,230.7,13,230.7,15.3z M227.5,15.3
		c0-0.8-1-1.1-3.3-1.1c-2.3,0-3.3,0.3-3.3,1.1c0,0.8,1,1.1,3.3,1.1C226.4,16.3,227.5,16,227.5,15.3z"/>
	<path fill="#FFFFFF" d="M244.4,1.6c0,6-1.4,10.9-8.6,14.5l-1.7-2.5c2.8-1.4,4.6-2.9,5.7-4.8l-5.1,0.5l-0.4-2.7l6.5-0.3
		c0.2-0.6,0.3-1.3,0.3-2.1h-5.8V1.6H244.4z M249.9-0.1v18.7h-3.2V-0.1H249.9z"/>
	<path fill="#FFFFFF" d="M269.5,8.7v2.5h-16.9V8.7h5.9V6.8h3.2v1.9H269.5z M264.4,3.7c0-0.3,0-0.5,0-0.8h-10.1V0.4h13.3V2
		c0,1.7,0,3.5-0.4,5.9L264,7.7c0.1-0.6,0.2-1.2,0.3-1.7l-10.1,0.4l-0.4-2.6L264.4,3.7z M267.5,15.3c0,2.2-2.5,3.4-6.6,3.4
		c-4.1,0-6.6-1.2-6.6-3.4c0-2.2,2.5-3.4,6.6-3.4C265.1,11.9,267.5,13.1,267.5,15.3z M264.3,15.3c0-0.7-1-1-3.3-1
		c-2.3,0-3.3,0.2-3.3,1c0,0.7,1,1,3.3,1C263.3,16.3,264.3,16,264.3,15.3z"/>
</g>
</svg>
