<?xml version="1.0" encoding="utf-8"?>
<!-- Generator: Adobe Illustrator 27.1.1, SVG Export Plug-In . SVG Version: 6.00 Build 0)  -->
<svg version="1.2" baseProfile="tiny" id="_06.svg" xmlns="http://www.w3.org/2000/svg" xmlns:xlink="http://www.w3.org/1999/xlink"
	 x="0px" y="0px" viewBox="0 0 202.9 78.8" overflow="visible" xml:space="preserve">
<path id="YOSHI" fill-rule="evenodd" fill="#FFFFFF" d="M32.8,76.1l-1.3-14.6L51.9,40l-15-8.4l-11,17.2l-6.5-20.2L0,34.9l17.6,25.9
	l-3,14.3L32.8,76.1z M88.1,70.8l2.7-21.3L78.7,37L60,34.5L45.8,50.6L50,71.8l19.7,7L88.1,70.8z M78,58.4l-7.6,7.3l-8.6-3.4L61.7,52
	l10.8-3.5L78,58.4z M127,74.9l8.9-17l-24.6-12l3-5l12.8,7.9l6.3-12l-14.9-7.5l-19.2,3.3L90.5,48l24.1,11.5l-3.7,5.4l-14.2-8.8
	l-6.8,11.2l15,9.7L127,74.9z M179.7,75.1l0.4-44l-17.9,1l1.6,15.9h-10.6l-2.1-16.9l-17.8,3.1l9.3,43.4l13.8-2.3l-1.7-13.5l10.1-2.4
	l1.7,16.7L179.7,75.1z M195.9,75l6.9-35.8l-17.6-3.7L183.1,76L195.9,75z"/>
<g>
	<path fill="#FFFFFF" d="M185.4,14.4v2.6h-17v-2.6h3.5V10c-1.3-0.9-2.1-2.2-2.1-3.8c0-3.1,3-5.2,7.1-5.2s7.1,2,7.1,5.2
		c0,1.6-0.8,2.9-2.1,3.8v4.4H185.4z M173,6.2c0,1.7,1.5,2.7,3.9,2.7s3.9-0.9,3.9-2.7c0-1.7-1.5-2.7-3.9-2.7S173,4.4,173,6.2z
		 M175.2,14.4h3.5v-3.2c-0.6,0.1-1.2,0.1-1.8,0.1c-0.6,0-1.2,0-1.8-0.1V14.4z"/>
	<path fill="#FFFFFF" d="M194.5,4c0,3.5,1.1,6.9,4.5,8.4l-1.9,2.6c-2.1-0.9-3.4-2.5-4.2-4.6c-0.8,2.3-2.2,4.1-4.4,5.1l-1.9-2.7
		c3.5-1.5,4.7-5.1,4.7-8.8V1.6h3.3V4z M202.5,0.2v18.9h-3.2V0.2H202.5z"/>
</g>
</svg>
