<?xml version="1.0" encoding="utf-8"?>
<!-- Generator: Adobe Illustrator 27.1.1, SVG Export Plug-In . SVG Version: 6.00 Build 0)  -->
<svg version="1.2" baseProfile="tiny" id="_05.svg" xmlns="http://www.w3.org/2000/svg" xmlns:xlink="http://www.w3.org/1999/xlink"
	 x="0px" y="0px" viewBox="0 0 214.2 78.9" overflow="visible" xml:space="preserve">
<path id="KOOPA" fill-rule="evenodd" fill="#FFFFFF" d="M46.1,65.4L29.3,52.8l13.5-14.3l-14.2-9.1L18,46.4l-1.3-14.8L0,33.1
	l6.1,43.6l14.5-1.2l-1.2-13.8l14,14.3L46.1,65.4z M85,70.9l2.7-21.3L75.6,37.2l-18.7-2.5L42.8,50.7L47,71.9l19.7,7L85,70.9z
	 M74.9,58.5l-7.6,7.3l-8.6-3.4l-0.2-10.3l10.8-3.5L74.9,58.5z M129.5,70.9l2.7-21.3L120,37.2l-18.7-2.5L87.2,50.7l4.2,21.3l19.7,7
	L129.5,70.9z M119.3,58.5l-7.6,7.3l-8.6-3.4L103,52.2l10.8-3.5L119.3,58.5z M172.1,55.7l3.4-15.6l-16.4-11.4l-26.4,3.7l3.5,43.8
	l14.4-1l-0.2-12.7l11.7,1.3L172.1,55.7z M158.2,52.7l-7.9,1.1l-0.2-13.1l9.8,3L158.2,52.7z M214.3,75.3l-11.5-37.7l-21.5-3l-12,39
	l14.9,3.2l1.7-8.2l10.9-1.1l1.8,9.5L214.3,75.3z M195,57.9l-6.8-0.7l2-9.7l2.9,0.4L195,57.9z"/>
<g>
	<path fill="#FFFFFF" d="M194.7,13.2h-6.9v6.3h-3.2v-6.3h-6.8v-2.6h11.5c0.2-0.8,0.3-1.6,0.4-2.3l-10.3,0.5L179,6.2l10.9-0.3
		c0-0.6,0-1.1,0-1.6h-10.3V1.8H193v1.7c0,2,0,4.1-0.6,7.2h2.3V13.2z"/>
	<path fill="#FFFFFF" d="M205.3,12.6c0.6-0.1,1.2-0.1,1.8-0.2l0.2,2.3c-3.7,0.7-7.9,0.8-11,0.8l-0.3-2.6c0.6,0,1.2,0,1.9,0v-8h-1.4
		V2.4h10.3v2.5h-1.4V12.6z M200.9,12.9c0.4,0,0.9,0,1.3-0.1V4.9h-1.3V12.9z M213.5,10.4H211v9.2h-3.2V0.8h3.2v6.9h2.5V10.4z"/>
</g>
</svg>
