<?xml version="1.0" encoding="utf-8"?>
<!-- Generator: Adobe Illustrator 27.1.1, SVG Export Plug-In . SVG Version: 6.00 Build 0)  -->
<svg version="1.2" baseProfile="tiny" id="mario.svg"
	 xmlns="http://www.w3.org/2000/svg" xmlns:xlink="http://www.w3.org/1999/xlink" x="0px" y="0px" viewBox="0 0 206.6 77.7"
	 overflow="visible" xml:space="preserve">
<path id="MARIO" fill-rule="evenodd" fill="#FFFFFF" d="M55.9,75.5l-5.6-42L39,31.9l-7.5,11.7l-3.8-13.3l-11.7-1.7L0,67l16,7.3
	l6.7-22l6.5,10.9l9.2-8.8L38.5,77L55.9,75.5z M99.8,74L88.3,36.3l-21.5-3l-12,39l14.9,3.2l1.7-8.2l10.9-1.1l1.8,9.5L99.8,74z
	 M80.5,56.7l-6.8-0.7l2-9.7l2.9,0.4L80.5,56.7z M143.6,68.9l-13.3-10.8l7.4-5l3.4-14.2l-16.4-11.4l-26.4,3.7l3.5,43.8l14.4-1
	L116,60.3l11.3,16.1L143.6,68.9z M123.8,50.9l-7.9,1.7l-0.2-13.1l9.8,3L123.8,50.9z M156,73.9l7-35.8l-17.6-3.7l-2.2,40.6L156,73.9z
	 M203.9,69.7l2.7-21.3l-12.2-12.5l-18.7-2.5l-14.2,16.1l4.2,21.3l19.7,7L203.9,69.7z M193.8,57.3l-7.6,7.3l-8.6-3.4l-0.2-10.3
	l10.8-3.5L193.8,57.3z"/>
<g>
	<path fill="#FFFFFF" d="M152.2,2.8h9.2v12.6h-9.2V2.8z M155.4,12.9h2.8V5.3h-2.8V12.9z M169.1,10.6h-2.5v9.3h-3.2V1.1h3.2V8h2.5
		V10.6z"/>
	<path fill="#FFFFFF" d="M174.4,13c2.7,0,4.9-0.2,7.2-0.6l0.3,2.6c-2.8,0.5-5.6,0.6-9.1,0.6h-1.7v-8h5.6V5.1h-5.7V2.6h9v7.6h-5.6V13
		z M185.9,1.1v18.9h-3.2V1.1H185.9z"/>
	<path fill="#FFFFFF" d="M205.6,15.2v2.6h-17v-2.6h6.9v-2.8c-3.2-0.5-5.5-2.4-5.5-5.2c0-3.2,3.1-5.3,7.1-5.3s7.1,2.1,7.1,5.3
		c0,2.8-2.3,4.7-5.5,5.2v2.8H205.6z M197,10c2.4,0,3.9-1,3.9-2.8c0-1.8-1.6-2.8-3.9-2.8c-2.3,0-3.9,1-3.9,2.8
		C193.1,9,194.7,10,197,10z"/>
</g>
</svg>
