<?xml version="1.0" encoding="utf-8"?>
<!-- Generator: Adobe Illustrator 27.1.1, SVG Export Plug-In . SVG Version: 6.00 Build 0)  -->
<svg version="1.2" baseProfile="tiny" id="title.svg"
	 xmlns="http://www.w3.org/2000/svg" xmlns:xlink="http://www.w3.org/1999/xlink" x="0px" y="0px" viewBox="0 0 293.2 79.2"
	 overflow="visible" xml:space="preserve">
<path id="CHARACTERS" fill-rule="evenodd" fill="#FFFFFF" d="M93.8,5.9c-0.3-1.6-1.2-3.1-2.5-4.1c-1.4-1.2-3.3-1.9-5.2-1.8
	c-4.1,0-7.5,3.3-7.6,7.5c-0.1,2.1,0.7,4.2,2.3,5.7c3.1,3,8,2.9,11-0.1c0.9-1,1.6-2.2,2-3.5h-4c-0.6,1.5-2,2.5-3.6,2.5
	c-2.4-0.2-4.2-2.4-4-4.8c0.2-2.1,1.8-3.8,3.9-4c1.6,0,3,1.1,3.6,2.6H93.8L93.8,5.9z M108.2,15.1V0.3h-3.8v5.6h-4.8V0.3h-3.8v14.8
	h3.8V9.1h4.8v5.9H108.2L108.2,15.1z M124.5,15.1l-5.9-14.8h-3l-5.9,14.8h4.1l0.8-2.1h5.1l0.7,2.1H124.5L124.5,15.1z M118.7,9.9h-3.1
	l1.5-5.1l0.1,0L118.7,9.9z M137.4,15.1l-4-5c2.2-0.4,3.8-2.4,3.7-4.7c0.1-1.9-1-3.7-2.7-4.6c-1.1-0.4-2.3-0.6-3.5-0.5H126v14.8h3.6
	v-4.8h0l3.4,4.8L137.4,15.1L137.4,15.1z M129.7,7.7V3.6h1.4c1.4,0,2.4,0.7,2.4,2c0,1.4-0.9,2.1-2.4,2.1H129.7L129.7,7.7z
	 M152.7,15.1l-5.9-14.8h-3l-5.9,14.8h4.1l0.8-2.1h5.1l0.7,2.1H152.7L152.7,15.1z M146.9,9.9h-3.1l1.5-5.1l0.1,0L146.9,9.9z
	 M168.9,5.9c-0.3-1.6-1.2-3.1-2.5-4.1c-1.4-1.2-3.3-1.9-5.2-1.8c-4.1,0-7.5,3.3-7.6,7.5c-0.1,2.1,0.7,4.2,2.3,5.7
	c3.1,3,8,2.9,11-0.1c0.9-1,1.6-2.2,2-3.5h-4c-0.6,1.5-2,2.5-3.6,2.5c-2.4-0.2-4.2-2.4-4-4.8c0.2-2.1,1.8-3.8,3.9-4
	c1.6,0,3,1.1,3.6,2.6H168.9L168.9,5.9z M176.5,15.1V3.6h2.9V0.3h-9.6v3.3h2.9v11.5H176.5L176.5,15.1z M189.1,15.1v-3.3h-4.6V9.2h4.5
	V5.9h-4.5V3.6h4.6V0.3h-8.2v14.8L189.1,15.1L189.1,15.1z M202.8,15.1l-4-5c2.2-0.4,3.8-2.4,3.7-4.7c0.1-1.9-1-3.7-2.7-4.6
	c-1.1-0.4-2.3-0.6-3.5-0.5h-4.8v14.8h3.6v-4.8h0l3.4,4.8L202.8,15.1L202.8,15.1z M195.1,7.7V3.6h1.4c1.4,0,2.4,0.7,2.4,2
	c0,1.4-0.9,2.1-2.4,2.1H195.1z M214,4.6c0.1-1.7-0.8-3.3-2.4-4C210.9,0.2,210,0,209.1,0c-2.7,0-5.2,1.8-5.2,4.4
	c0,1.9,1.1,3.2,3.5,4.2c1.3,0.5,3,1.1,3,2.2c0,0.8-0.6,1.4-1.4,1.4c0,0,0,0,0,0c-0.9,0-1.5-0.8-1.6-2h-3.8v0.3
	c0,3.2,2.1,4.9,5.3,4.9c3.2,0,5.2-1.7,5.2-4.5c0-1.9-0.8-3.1-4.1-4.5c-1.6-0.7-2.4-1.1-2.4-2c0-0.7,0.6-1.2,1.3-1.2
	c0.7,0,1.2,0.4,1.3,1.4L214,4.6L214,4.6z"/>
<g>
	<path fill="#FFFFFF" d="M100.4,36.4c0,14.1-3.1,24.7-17,32.9l-4.4-5.6c5.3-3.1,8.7-6.5,10.8-10.5l-9.4,1l-0.9-6.8l12.5-0.5
		c0.3-1.3,0.5-2.7,0.6-4.2H82.1v-6.4H100.4z M120,31v46.9h-7.7V54.7h-2.9V76H102V32h7.5v16.3h2.9V31H120z"/>
	<path fill="#FFFFFF" d="M154.6,57.1c-6.5,1.1-12.8,1.2-22.5,1.2h-4.3V42.8h13.8v-2.9h-13.8v-6.4h21.8v15.3h-13.8v3.2
		c7.3-0.1,12.4-0.3,17.9-1.2L154.6,57.1z M132.3,61.7h32.4v16.3h-8.1V68h-24.3V61.7z M164.7,31v29h-8.1V31H164.7z"/>
	<path fill="#FFFFFF" d="M181.5,61.3c5.4,0,10.2-0.3,15.6-1.1l0.7,6.4c-6.8,1-13,1.1-20.4,1.1h-4V34.7h21.8v6.4h-13.7v6.5h12.4v6.3
		h-12.4V61.3z M211.2,30.9V78h-8.1V53.3H196v-6.5h7.2V30.9H211.2z"/>
</g>
</svg>
