<svg width="41" height="40" viewBox="0 0 41 40" fill="none" xmlns="http://www.w3.org/2000/svg">
<rect width="40" height="40" transform="translate(0.5)" fill="white"/>
<path d="M9.01259 9.6303C8.55392 10.504 8.85696 11.5838 9.70324 12.0912L17.6427 16.8518L23.7447 10.7484L10.9603 8.6588C10.1696 8.52957 9.385 8.92093 9.01259 9.6303V9.6303Z" stroke="#333333" stroke-width="1.5" stroke-miterlimit="10" stroke-linecap="round"/>
<path d="M30.5359 31.1666C29.6639 31.6226 28.5877 31.3194 28.0818 30.4754L23.3193 22.5291L29.3422 16.8595L31.5049 29.1998C31.6445 29.9965 31.2526 30.7919 30.5359 31.1666V31.1666Z" stroke="#333333" stroke-width="1.5" stroke-miterlimit="10" stroke-linecap="round"/>
<path d="M12.3429 22.9802L8.52697 22.6604C7.99997 22.6162 7.47586 22.7737 7.06049 23.1011L6.26984 23.7241C5.63057 24.2279 5.78824 25.237 6.55072 25.5218L10.6514 27.0533" fill="#5194FF"/>
<path d="M12.3429 22.9802L8.52697 22.6604C7.99997 22.6162 7.47586 22.7737 7.06049 23.1011L6.26984 23.7241C5.63057 24.2279 5.78824 25.237 6.55072 25.5218L10.6514 27.0533" stroke="#333333" stroke-width="1.5" stroke-miterlimit="10" stroke-linecap="round"/>
<path d="M17.205 27.8303L17.5249 31.6604C17.5689 32.1871 17.4115 32.7108 17.0845 33.126L16.4626 33.9155C15.9586 34.5553 14.9488 34.3972 14.6645 33.634L13.1328 29.5222" fill="#5194FF"/>
<path d="M17.205 27.8303L17.5249 31.6604C17.5689 32.1871 17.4115 32.7108 17.0845 33.126L16.4626 33.9155C15.9586 34.5553 14.9488 34.3972 14.6645 33.634L13.1328 29.5222" stroke="#333333" stroke-width="1.5" stroke-miterlimit="10" stroke-linecap="round"/>
<path d="M33.7596 11.445C34.0381 10.9732 34.2846 10.4928 34.4957 10.009C35.0972 8.63036 34.809 7.20164 33.9194 6.31183L33.8818 6.27423C32.9922 5.38441 31.5638 5.08363 30.1855 5.69773C28.6068 6.38702 27.0781 7.4523 25.7375 8.78076L14.8992 19.6215C13.4082 21.1129 12.2554 22.8549 11.5788 24.6471L10.1755 28.3567L10.163 28.3442C9.76202 29.3969 10.7895 30.4246 11.842 30.0236L15.5508 28.6199C17.3425 27.9432 19.0967 26.7776 20.5752 25.2988L30.908 14.9636" stroke="#333333" stroke-width="1.5" stroke-miterlimit="10" stroke-linecap="round"/>
</svg>
