<svg width="40" height="40" viewBox="0 0 40 40" fill="none" xmlns="http://www.w3.org/2000/svg">
<rect width="40" height="40" fill="white"/>
<path fill-rule="evenodd" clip-rule="evenodd" d="M19.9443 7.25C17.7478 7.25 15.877 8.60564 15.1205 10.5132C14.9678 10.8982 14.5318 11.0866 14.1468 10.9339C13.7618 10.7812 13.5734 10.3452 13.7261 9.9602C14.7026 7.49792 17.1149 5.75 19.9443 5.75H20.0804C22.8983 5.75 25.31 7.49878 26.2862 9.9602C26.4389 10.3452 26.2505 10.7812 25.8655 10.9339C25.4804 11.0866 25.0445 10.8982 24.8918 10.5132C24.135 8.60478 22.2636 7.25 20.0804 7.25H19.9443Z" fill="#333333"/>
<path fill-rule="evenodd" clip-rule="evenodd" d="M13.9963 12.3668C14.4106 12.3668 14.7463 12.7026 14.7463 13.1168V18.2811C14.7463 19.3686 15.0827 20.3979 15.6632 21.228L15.667 21.2335L15.667 21.2335C16.5986 22.5915 18.1673 23.49 19.9382 23.49H20.0743C21.8479 23.49 23.4143 22.6018 24.3439 21.2358L24.3493 21.228L24.3493 21.228C24.9298 20.3979 25.2662 19.3686 25.2662 18.2811V13.1168C25.2662 12.7026 25.602 12.3668 26.0162 12.3668C26.4304 12.3668 26.7662 12.7026 26.7662 13.1168V18.2811C26.7662 19.6748 26.3361 21.0027 25.5813 22.0837C24.3815 23.8439 22.3593 24.99 20.0743 24.99H19.9382C17.65 24.99 15.6298 23.8289 14.432 22.0849C13.6767 21.0036 13.2463 19.6753 13.2463 18.2811V13.1168C13.2463 12.7026 13.5821 12.3668 13.9963 12.3668Z" fill="#333333"/>
<path fill-rule="evenodd" clip-rule="evenodd" d="M11.5693 11.6767C11.5693 10.4672 12.5499 9.48669 13.7594 9.48669H26.2409C27.4504 9.48669 28.4309 10.4672 28.4309 11.6767C28.4309 12.8863 27.4504 13.8668 26.2409 13.8668H13.7594C12.5499 13.8668 11.5693 12.8863 11.5693 11.6767ZM13.7594 10.9867C13.3783 10.9867 13.0693 11.2956 13.0693 11.6767C13.0693 12.0578 13.3783 12.3668 13.7594 12.3668H26.2409C26.622 12.3668 26.9309 12.0578 26.9309 11.6767C26.9309 11.2956 26.622 10.9867 26.2409 10.9867H13.7594Z" fill="#333333"/>
<path fill-rule="evenodd" clip-rule="evenodd" d="M13.4804 22.3954C12.6339 22.3954 11.9088 23.0013 11.7583 23.8343L10.52 30.6889C10.3261 31.7625 11.1511 32.75 12.2421 32.75H27.758C28.849 32.75 29.674 31.7625 29.4801 30.6889L29.0535 28.3278C28.9799 27.9202 29.2507 27.53 29.6583 27.4564C30.0659 27.3828 30.456 27.6535 30.5297 28.0611L30.9562 30.4222C31.3164 32.4161 29.7841 34.25 27.758 34.25H12.2421C10.2159 34.25 8.6837 32.4161 9.0439 30.4222L10.2822 23.5676C10.5617 22.0206 11.9084 20.8954 13.4804 20.8954H14.4987C14.9129 20.8954 15.2487 21.2312 15.2487 21.6454C15.2487 22.0596 14.9129 22.3954 14.4987 22.3954H13.4804ZM24.7638 21.6454C24.7638 21.2312 25.0996 20.8954 25.5138 20.8954H26.5197C28.0917 20.8954 29.4384 22.0206 29.7179 23.5676L29.7902 23.9681C29.8639 24.3757 29.5931 24.7658 29.1855 24.8395C28.7779 24.9131 28.3878 24.6423 28.3141 24.2347L28.2418 23.8343C28.0913 23.0013 27.3662 22.3954 26.5197 22.3954H25.5138C25.0996 22.3954 24.7638 22.0596 24.7638 21.6454Z" fill="#333333"/>
<path d="M17.3816 12.6992H22.6183V16.3829C22.6183 17.8289 21.446 19.0012 19.9999 19.0012Lnan nanLnan nanL19.9999 19.0012C18.5539 19.0012 17.3816 17.8289 17.3816 16.3829V12.6992Z" fill="#73AFFF"/>
<path fill-rule="evenodd" clip-rule="evenodd" d="M21.1183 14.1992H18.8816V16.3829C18.8816 17.0005 19.3823 17.5012 19.9999 17.5012C20.6176 17.5012 21.1183 17.0005 21.1183 16.3829V14.1992ZM17.3816 12.6992V16.3829C17.3816 17.8289 18.5539 19.0012 19.9999 19.0012C21.446 19.0012 22.6183 17.8289 22.6183 16.3829V12.6992H17.3816Z" fill="#333333"/>
</svg>
