<svg width="41" height="40" viewBox="0 0 41 40" fill="none" xmlns="http://www.w3.org/2000/svg">
<rect width="40" height="40" transform="translate(0.75)" fill="white"/>
<circle cx="12.5" cy="26.25" r="3.5" fill="#5194FF" stroke="#333333" stroke-width="1.5" stroke-linecap="round" stroke-linejoin="round"/>
<circle cx="30.25" cy="26.25" r="3.5" fill="#5194FF" stroke="#333333" stroke-width="1.5" stroke-linecap="round" stroke-linejoin="round"/>
<path d="M26.5 26.332H16.25" stroke="#333333" stroke-width="1.5" stroke-linecap="round" stroke-linejoin="round"/>
<path d="M8.75 26H5.83048C4.83235 26 3.97085 25.2608 4.00716 24.2633C4.13415 20.7751 5.99203 16 12.8964 16H35C36.1046 16 37 16.8954 37 18V24C37 25.1046 36.1046 26 35 26H33.75" stroke="#333333" stroke-width="1.5" stroke-linecap="round" stroke-linejoin="round"/>
<path d="M12 16L16.3412 9.84701C16.7159 9.31589 17.3254 9 17.9754 9H23.6735M23.6735 9V16M23.6735 9H30.4081C31.0886 9 31.7225 9.34604 32.0905 9.91848L33.75 12.5" stroke="#333333" stroke-width="1.5" stroke-linecap="round" stroke-linejoin="round"/>
<path d="M20 19H21.5" stroke="#333333" stroke-width="1.5" stroke-linecap="round"/>
<path d="M30.5 19H32" stroke="#333333" stroke-width="1.5" stroke-linecap="round"/>
</svg>
