<svg width="41" height="40" viewBox="0 0 41 40" fill="none" xmlns="http://www.w3.org/2000/svg">
<rect width="40" height="40" transform="translate(0.25)" fill="white"/>
<path d="M14.4993 10.5173C16.8802 9.14315 19.6795 8.6814 22.3756 9.21804C25.0718 9.75468 27.4809 11.2531 29.1542 13.4342C30.8275 15.6153 31.6509 18.3303 31.471 21.0734C31.2911 23.8165 30.1202 26.4007 28.1763 28.3446C26.2325 30.2884 23.6483 31.4594 20.9051 31.6393C18.162 31.8192 15.447 30.9958 13.2659 29.3225C11.0848 27.6492 9.5864 25.24 9.04976 22.5439C8.51312 19.8478 8.97487 17.0485 10.349 14.6675" stroke="#333333" stroke-width="1.5" stroke-linecap="round"/>
<path d="M24.0408 16.2091L16.4593 23.7907" stroke="#333333" stroke-width="1.5" stroke-miterlimit="10" stroke-linecap="round"/>
<path d="M23.8149 23.5649C24.3313 23.0485 24.3313 22.2112 23.8149 21.6948C23.2985 21.1784 22.4613 21.1784 21.9448 21.6948C21.4284 22.2112 21.4284 23.0485 21.9448 23.5649C22.4613 24.0814 23.2985 24.0814 23.8149 23.5649Z" fill="#FFA33F" stroke="#333333" stroke-width="1.5" stroke-miterlimit="10" stroke-linecap="round"/>
<path d="M18.5551 18.3052C19.0716 17.7887 19.0716 16.9515 18.5551 16.4351C18.0387 15.9186 17.2015 15.9186 16.685 16.435C16.1686 16.9515 16.1686 17.7887 16.685 18.3052C17.2015 18.8216 18.0387 18.8216 18.5551 18.3052Z" fill="#FFA33F" stroke="#333333" stroke-width="1.5" stroke-miterlimit="10" stroke-linecap="round"/>
<path d="M8.83337 23.3023C6.54011 25.5347 5.48767 27.5432 6.24123 28.7501C6.96183 29.9015 9.1887 30.1039 12.2021 29.5C14 29 15.6881 28.7501 17.5 28M29 13C31.8485 12.4759 33.9435 12.7025 34.6376 13.8116C35.4087 15.0437 34.297 17.1111 31.9073 19.3963L29 22" stroke="#333333" stroke-width="1.5" stroke-linecap="round" stroke-linejoin="round"/>
<path d="M20.25 26.8C20.25 26.8 20.1515 26.8477 19.7999 27.0178" stroke="#333333" stroke-width="1.5" stroke-linecap="round"/>
</svg>
