<svg xmlns="http://www.w3.org/2000/svg" width="185.958" height="183.02" viewBox="0 0 185.958 183.02">
  <g id="그룹_9774" data-name="그룹 9774" transform="translate(-3260.93 21099.895)">
    <path id="패스_32" data-name="패스 32" d="M.114,303.151c-.984-11.159,4.5-20.895,14.145-24.762l19.611-7.858c9.649-3.867,16.413.963,17.4,12.122l.28,3.172,6.641-2.662L56.314,261.9l20.96-8.4,8.173,92.679a20.335,20.335,0,0,1-2.99,12.386,18.552,18.552,0,0,1-9.153,8.289l-7.471,2.994L63.74,346.125,59.071,348a11.16,11.16,0,0,1-1.992.555l.446,5.051c.963,10.924-4.5,20.895-14.145,24.761l-19.611,7.859c-9.65,3.866-16.435-1.2-17.4-12.123ZM31.179,364.28l1.557-.623c2.179-.874,3.643-2.554,3.218-7.37l-5.24-59.438c-.446-5.05-2.075-5.249-4.254-4.376L24.9,293.1c-2.178.873-3.663,2.319-3.218,7.369L26.926,359.9c.424,4.816,2.074,5.249,4.252,4.376m21.974-60.248L55.5,330.7l6.64-2.662-2.33-26.429-4.67,1.871a11.155,11.155,0,0,1-1.992.555" transform="translate(3267.999 -21311.455)" fill="#0e1238" opacity="0.998"/>
    <path id="패스_33" data-name="패스 33" d="M87.468,260.667l-.954-10.808,50.221-20.123,4.061,46.046c1.709,19.383-1.439,36.088-9.325,50.194-7.877,14.223-19.655,24.416-35.324,30.693l-1.626-18.441c8.3-3.327,14.746-9.435,19.343-18.21s6.28-20.151,5.068-33.894l-2.59-29.366-21.9,8.655c-3.321,1.331-6.568-.165-6.972-4.746M173.1,310.754a20.342,20.342,0,0,1-2.99,12.386,18.558,18.558,0,0,1-9.153,8.29l-7.574,3.035-9.519-107.95,21.064-8.44Z" transform="translate(3266.641 -21310.898)" fill="#0e1238" opacity="0.998"/>
  </g>
</svg>
