<svg xmlns="http://www.w3.org/2000/svg" width="299.239" height="444.629" viewBox="0 0 299.239 444.629">
  <path id="패스_31" data-name="패스 31" d="M452.164,334.673a90.026,90.026,0,0,1-39.75,31.17L266.477,424.957q-24.159,9.787-42.751,2.248c-12.031-4.787-18.715-14.442-19.983-28.225l-2.226-24.214c-1.267-13.782,3.226-27.967,13.544-41.805a92.106,92.106,0,0,1,40.08-31.3l145.936-59.114c16.1-6.523,30.354-7.273,42.422-2.114,12.359,4.651,19.042,14.309,20.309,28.091l2.227,24.214c1.269,13.782-3.223,27.965-13.87,41.939M207.157,313.752c-14.134,5.725-21.652,1.816-23.125-14.2l-2.877-31.291,108.8-44.069-.96-10.431-73.3,29.69c-12.82,5.192-19.974,1.521-21.31-13.005L182.5,101.185,432.3,0l2.226,24.213c1.336,14.528-4.656,23.524-17.474,28.717L253.038,119.365l.786,8.568L437.232,53.64,439.15,74.5c1.335,14.528-4.657,23.523-17.475,28.716L257.662,169.654l.822,8.939,185.048-74.958,2.3,24.959c1.337,14.526-4.657,23.524-17.474,28.715L356.042,186.6,357,197.03l106.163-43,2.878,31.291c1.472,16.018-4.813,25.518-18.947,31.244Zm174.666-6.226-96.633,39.143c-14.792,5.992-17.578,9.053-17.133,13.9s3.574,5.506,18.366-.486l96.632-39.143c14.79-5.991,17.581-9.052,17.135-13.894s-3.576-5.507-18.367.484" transform="translate(-174.085 7.072)" fill="#0e1238" opacity="0.998"/>
</svg>
